<svg id="visual" viewBox="0 0 900 600" width="1500" height="1000" xmlns="http://www.w3.org/2000/svg"
    xmlns:xlink="http://www.w3.org/1999/xlink" version="1.1">
    <rect x="0" y="0" width="1500" height="1000" fill="#c0e3ff"></rect>
    <defs>
        <linearGradient id="grad1_0" x1="33.3%" y1="0%" x2="100%" y2="100%">
            <stop offset="20%" stop-color="#47aafc" stop-opacity="1"></stop>
            <stop offset="80%" stop-color="#47aafc" stop-opacity="1"></stop>
        </linearGradient>
    </defs>
    <defs>
        <linearGradient id="grad1_1" x1="33.3%" y1="0%" x2="100%" y2="100%">
            <stop offset="20%" stop-color="#47aafc" stop-opacity="1"></stop>
            <stop offset="80%" stop-color="#5cb2fd" stop-opacity="1"></stop>
        </linearGradient>
    </defs>
    <defs>
        <linearGradient id="grad1_2" x1="33.3%" y1="0%" x2="100%" y2="100%">
            <stop offset="20%" stop-color="#6ebbfd" stop-opacity="1"></stop>
            <stop offset="80%" stop-color="#5cb2fd" stop-opacity="1"></stop>
        </linearGradient>
    </defs>
    <defs>
        <linearGradient id="grad1_3" x1="33.3%" y1="0%" x2="100%" y2="100%">
            <stop offset="20%" stop-color="#6ebbfd" stop-opacity="1"></stop>
            <stop offset="80%" stop-color="#80c3fd" stop-opacity="1"></stop>
        </linearGradient>
    </defs>
    <defs>
        <linearGradient id="grad1_4" x1="33.3%" y1="0%" x2="100%" y2="100%">
            <stop offset="20%" stop-color="#90cbfe" stop-opacity="1"></stop>
            <stop offset="80%" stop-color="#80c3fd" stop-opacity="1"></stop>
        </linearGradient>
    </defs>
    <defs>
        <linearGradient id="grad1_5" x1="33.3%" y1="0%" x2="100%" y2="100%">
            <stop offset="20%" stop-color="#90cbfe" stop-opacity="1"></stop>
            <stop offset="80%" stop-color="#a0d3fe" stop-opacity="1"></stop>
        </linearGradient>
    </defs>
    <defs>
        <linearGradient id="grad1_6" x1="33.3%" y1="0%" x2="100%" y2="100%">
            <stop offset="20%" stop-color="#b0dbff" stop-opacity="1"></stop>
            <stop offset="80%" stop-color="#a0d3fe" stop-opacity="1"></stop>
        </linearGradient>
    </defs>
    <defs>
        <linearGradient id="grad1_7" x1="33.3%" y1="0%" x2="100%" y2="100%">
            <stop offset="20%" stop-color="#b0dbff" stop-opacity="1"></stop>
            <stop offset="80%" stop-color="#c0e3ff" stop-opacity="1"></stop>
        </linearGradient>
    </defs>
    <defs>
        <linearGradient id="grad2_0" x1="0%" y1="0%" x2="66.7%" y2="100%">
            <stop offset="20%" stop-color="#47aafc" stop-opacity="1"></stop>
            <stop offset="80%" stop-color="#47aafc" stop-opacity="1"></stop>
        </linearGradient>
    </defs>
    <defs>
        <linearGradient id="grad2_1" x1="0%" y1="0%" x2="66.7%" y2="100%">
            <stop offset="20%" stop-color="#5cb2fd" stop-opacity="1"></stop>
            <stop offset="80%" stop-color="#47aafc" stop-opacity="1"></stop>
        </linearGradient>
    </defs>
    <defs>
        <linearGradient id="grad2_2" x1="0%" y1="0%" x2="66.7%" y2="100%">
            <stop offset="20%" stop-color="#5cb2fd" stop-opacity="1"></stop>
            <stop offset="80%" stop-color="#6ebbfd" stop-opacity="1"></stop>
        </linearGradient>
    </defs>
    <defs>
        <linearGradient id="grad2_3" x1="0%" y1="0%" x2="66.7%" y2="100%">
            <stop offset="20%" stop-color="#80c3fd" stop-opacity="1"></stop>
            <stop offset="80%" stop-color="#6ebbfd" stop-opacity="1"></stop>
        </linearGradient>
    </defs>
    <defs>
        <linearGradient id="grad2_4" x1="0%" y1="0%" x2="66.7%" y2="100%">
            <stop offset="20%" stop-color="#80c3fd" stop-opacity="1"></stop>
            <stop offset="80%" stop-color="#90cbfe" stop-opacity="1"></stop>
        </linearGradient>
    </defs>
    <defs>
        <linearGradient id="grad2_5" x1="0%" y1="0%" x2="66.7%" y2="100%">
            <stop offset="20%" stop-color="#a0d3fe" stop-opacity="1"></stop>
            <stop offset="80%" stop-color="#90cbfe" stop-opacity="1"></stop>
        </linearGradient>
    </defs>
    <defs>
        <linearGradient id="grad2_6" x1="0%" y1="0%" x2="66.7%" y2="100%">
            <stop offset="20%" stop-color="#a0d3fe" stop-opacity="1"></stop>
            <stop offset="80%" stop-color="#b0dbff" stop-opacity="1"></stop>
        </linearGradient>
    </defs>
    <defs>
        <linearGradient id="grad2_7" x1="0%" y1="0%" x2="66.7%" y2="100%">
            <stop offset="20%" stop-color="#c0e3ff" stop-opacity="1"></stop>
            <stop offset="80%" stop-color="#b0dbff" stop-opacity="1"></stop>
        </linearGradient>
    </defs>
    <g transform="translate(900, 0)">
        <path
            d="M0 486.7C-64.6 481.7 -129.1 476.6 -186.3 449.7C-243.4 422.8 -293.2 373.9 -321 321C-348.9 268.1 -354.8 211.1 -378.8 156.9C-402.8 102.7 -444.8 51.4 -486.7 0L0 0Z"
            fill="#b8dfff"></path>
        <path
            d="M0 425.9C-56.5 421.5 -113 417.1 -163 393.5C-213 369.9 -256.5 327.2 -280.9 280.9C-305.3 234.6 -310.5 200.7 -331.4 137.3C-352.4 89.9 -389.2 44.9 -425.9 0L0 0Z"
            fill="#a8d7fe"></path>
        <path
            d="M0 365.1C-48.4 361.3 -96.8 357.5 -139.7 337.3C-182.6 317.1 -219.9 280.5 -240.8 240.8C-261.7 201.1 -266.1 158.3 -284.1 117.7C-302.1 77 -333.6 38.5 -365.1 0L0 0Z"
            fill="#98cffe"></path>
        <path
            d="M0 304.2C-40.3 301.1 -80.7 297.9 -116.4 281.1C-152.1 264.2 -183.2 233.7 -200.6 200.6C-218 167.6 -221.8 131.9 -236.7 98.1C-251.7 64.2 -278 32.1 -304.2 0L0 0Z"
            fill="#88c7fe"></path>
        <path
            d="M0 243.4C-32.3 240.8 -64.6 238.3 -93.1 224.8C-121.7 211.4 -146.6 187 -160.5 160.5C-174.4 134.1 -177.4 105.5 -189.4 78.5C-201.4 51.4 -222.4 25.7 -243.4 0L0 0Z"
            fill="#77bffd"></path>
        <path
            d="M0 182.5C-24.2 180.6 -48.4 178.7 -69.9 168.6C-91.3 158.5 -109.9 140.2 -120.4 120.4C-130.8 100.5 -133.1 79.2 -142 58.8C-151 38.5 -166.8 19.3 -182.5 0L0 0Z"
            fill="#65b7fd"></path>
        <path
            d="M0 121.7C-16.1 120.4 -32.3 119.2 -46.6 112.4C-60.9 105.7 -73.3 93.5 -80.3 80.3C-87.2 67 -88.7 52.8 -94.7 39.2C-100.7 25.7 -111.2 12.8 -121.7 0L0 0Z"
            fill="#52aefc"></path>
        <path
            d="M0 60.8C-8.1 60.2 -16.1 59.6 -23.3 56.2C-30.4 52.8 -36.6 46.7 -40.1 40.1C-43.6 33.5 -44.4 26.4 -47.3 19.6C-50.3 12.8 -55.6 6.4 -60.8 0L0 0Z"
            fill="#47aafc"></path>
    </g>
    <g transform="translate(0, 600)">
        <path
            d="M0 -486.7C52 -455.4 103.9 -424 168.4 -406.5C232.8 -389 309.8 -385.4 344.2 -344.2C378.6 -302.9 370.4 -224 387.1 -160.3C403.8 -96.7 445.3 -48.4 486.7 0L0 0Z"
            fill="#b8dfff"></path>
        <path
            d="M0 -425.9C45.5 -398.4 90.9 -371 147.3 -355.7C203.7 -340.4 271.1 -337.3 301.2 -301.2C331.3 -265.1 324.1 -196 338.7 -140.3C353.3 -84.6 389.6 -42.3 425.9 0L0 0Z"
            fill="#a8d7fe"></path>
        <path
            d="M0 -365.1C39 -341.5 77.9 -318 126.3 -304.9C174.6 -291.8 232.3 -289.1 258.1 -258.1C283.9 -227.2 277.8 -168 290.3 -120.3C302.8 -72.5 333.9 -36.3 365.1 0L0 0Z"
            fill="#98cffe"></path>
        <path
            d="M0 -304.2C32.5 -284.6 65 -265 105.2 -254.1C145.5 -243.1 193.6 -240.9 215.1 -215.1C236.6 -189.3 231.5 -140 241.9 -100.2C252.4 -60.4 278.3 -30.2 304.2 0L0 0Z"
            fill="#88c7fe"></path>
        <path
            d="M0 -243.4C26 -227.7 52 -212 84.2 -203.3C116.4 -194.5 154.9 -192.7 172.1 -172.1C189.3 -151.5 185.2 -112 193.6 -80.2C201.9 -48.4 222.6 -24.2 243.4 0L0 0Z"
            fill="#77bffd"></path>
        <path
            d="M0 -182.5C19.5 -170.8 39 -159 63.1 -152.4C87.3 -145.9 116.2 -144.5 129.1 -129.1C142 -113.6 138.9 -84 145.2 -60.1C151.4 -36.3 167 -18.1 182.5 0L0 0Z"
            fill="#65b7fd"></path>
        <path
            d="M0 -121.7C13 -113.8 26 -106 42.1 -101.6C58.2 -97.3 77.4 -96.4 86 -86C94.6 -75.7 92.6 -56 96.8 -40.1C100.9 -24.2 111.3 -12.1 121.7 0L0 0Z"
            fill="#52aefc"></path>
        <path
            d="M0 -60.8C6.5 -56.9 13 -53 21 -50.8C29.1 -48.6 38.7 -48.2 43 -43C47.3 -37.9 46.3 -28 48.4 -20C50.5 -12.1 55.7 -6 60.8 0L0 0Z"
            fill="#47aafc"></path>
    </g>
</svg>