<svg width="200" height="250" viewBox="0 0 200 250" fill="none" xmlns="http://www.w3.org/2000/svg">
<rect width="200" height="222.208" rx="26" fill="#59dbff"/>
<path d="M60 69C65.3923 68.9933 70.5806 71.0611 74.49 74.775C78.3994 78.489 80.7304 83.5644 81 88.95V145.125C81 147.214 80.1703 149.217 78.6935 150.693C77.2166 152.17 75.2136 153 73.125 153C71.0364 153 69.0334 152.17 67.5565 150.693C66.0797 149.217 65.25 147.214 65.25 145.125V111H60C54.6077 111.007 49.4194 108.939 45.51 105.225C41.6006 101.511 39.2696 96.4356 39 91.05V90C39 84.4305 41.2125 79.089 45.1508 75.1508C49.089 71.2125 54.4305 69 60 69ZM123 69C117.608 68.9933 112.419 71.0611 108.51 74.775C104.601 78.489 102.27 83.5644 102 88.95V145.125C102 147.214 102.83 149.217 104.307 150.693C105.783 152.17 107.786 153 109.875 153C111.964 153 113.967 152.17 115.443 150.693C116.92 149.217 117.75 147.214 117.75 145.125V111H123C128.392 111.007 133.581 108.939 137.49 105.225C141.399 101.511 143.73 96.4356 144 91.05V90C144 84.4305 141.788 79.089 137.849 75.1508C133.911 71.2125 128.57 69 123 69Z" stroke="white" stroke-width="8" stroke-linecap="round" stroke-linejoin="round"/>
</svg>
