<svg xmlns="http://www.w3.org/2000/svg" version="1.1" xmlns:xlink="http://www.w3.org/1999/xlink"
    xmlns:svgjs="http://svgjs.dev/svgjs" viewBox="0 0 1200 1200" opacity="1">
    <defs>
        <linearGradient x1="50%" y1="0%" x2="50%" y2="100%" id="cccoil-grad">
            <stop stop-color="hsl(205, 69%, 60%)" stop-opacity="1" offset="0%"></stop>
            <stop stop-color="hsl(205, 69%, 80%)" stop-opacity="1" offset="100%"></stop>
        </linearGradient>
    </defs>
    <g stroke="url(#cccoil-grad)" fill="none" stroke-linecap="round">
        <circle r="313.5" cx="400" cy="400" stroke-width="7" stroke-dasharray="1674 1970"
            transform="rotate(360, 400, 400)" opacity="1.00"></circle>
        <circle r="297" cx="400" cy="400" stroke-width="7" stroke-dasharray="1498 1866"
            transform="rotate(340, 400, 400)" opacity="0.95"></circle>
        <circle r="280.5" cx="400" cy="400" stroke-width="7" stroke-dasharray="1332 1762"
            transform="rotate(320, 400, 400)" opacity="0.89"></circle>
        <circle r="264" cx="400" cy="400" stroke-width="7" stroke-dasharray="1175 1659"
            transform="rotate(300, 400, 400)" opacity="0.84"></circle>
        <circle r="247.5" cx="400" cy="400" stroke-width="7" stroke-dasharray="1028 1555"
            transform="rotate(280, 400, 400)" opacity="0.79"></circle>
        <circle r="231" cx="400" cy="400" stroke-width="7" stroke-dasharray="891 1451"
            transform="rotate(260, 400, 400)" opacity="0.74"></circle>
        <circle r="214.5" cx="400" cy="400" stroke-width="7" stroke-dasharray="764 1348"
            transform="rotate(240, 400, 400)" opacity="0.68"></circle>
        <circle r="198" cx="400" cy="400" stroke-width="7" stroke-dasharray="646 1244"
            transform="rotate(220, 400, 400)" opacity="0.63"></circle>
        <circle r="181.5" cx="400" cy="400" stroke-width="7" stroke-dasharray="539 1140"
            transform="rotate(200, 400, 400)" opacity="0.58"></circle>
        <circle r="165" cx="400" cy="400" stroke-width="7" stroke-dasharray="441 1037"
            transform="rotate(180, 400, 400)" opacity="0.53"></circle>
        <circle r="148.5" cx="400" cy="400" stroke-width="7" stroke-dasharray="352 933"
            transform="rotate(160, 400, 400)" opacity="0.47"></circle>
        <circle r="132" cx="400" cy="400" stroke-width="7" stroke-dasharray="274 829"
            transform="rotate(140, 400, 400)" opacity="0.42"></circle>
        <circle r="115.5" cx="400" cy="400" stroke-width="7" stroke-dasharray="206 726"
            transform="rotate(120, 400, 400)" opacity="0.37"></circle>
        <circle r="99" cx="400" cy="400" stroke-width="7" stroke-dasharray="147 622"
            transform="rotate(100, 400, 400)" opacity="0.31"></circle>
        <circle r="82.5" cx="400" cy="400" stroke-width="7" stroke-dasharray="98 518"
            transform="rotate(80, 400, 400)" opacity="0.26"></circle>
        <circle r="66" cx="400" cy="400" stroke-width="7" stroke-dasharray="59 415"
            transform="rotate(60, 400, 400)" opacity="0.21"></circle>
        <circle r="49.5" cx="400" cy="400" stroke-width="7" stroke-dasharray="29 311"
            transform="rotate(40, 400, 400)" opacity="0.16"></circle>
        <circle r="33" cx="400" cy="400" stroke-width="7" stroke-dasharray="10 207"
            transform="rotate(20, 400, 400)" opacity="0.10"></circle>
        <circle r="16.5" cx="400" cy="400" stroke-width="7" stroke-dasharray="0 104" opacity="0.05"></circle>
    </g>
</svg>