<svg width="200" height="250" viewBox="0 0 200 250" fill="none" xmlns="http://www.w3.org/2000/svg">
<rect width="200" height="222.208" rx="26" fill="#59dbff"/>
<path d="M123.889 88.4898L64.4317 62.411C63.242 61.8913 61.894 61.8634 60.6837 62.3334C60.0856 62.5695 59.5403 62.9212 59.0791 63.3682C58.618 63.8151 58.2502 64.3486 57.9968 64.9379L43.3943 98.8883C42.8858 100.07 42.8693 101.405 43.3486 102.6C43.8278 103.794 44.7634 104.75 45.9497 105.256L79.8131 119.714L73.7773 134.75H52.735V120.199H43V159H52.735V144.45H73.7773C77.7833 144.45 81.3317 142.054 82.8115 138.348L88.7596 123.536L105.402 130.642C106.583 131.147 107.917 131.167 109.112 130.696C110.308 130.226 111.268 129.303 111.783 128.129L126.386 94.8725C126.902 93.6959 126.929 92.3633 126.461 91.1667C125.993 89.9702 125.068 89.0075 123.889 88.4898ZM130.275 131.704L121.231 128.105L130.956 103.855L140 107.449L130.275 131.704Z" fill="white"/>
</svg>
