<svg width="200" height="250" viewBox="0 0 200 250" fill="none" xmlns="http://www.w3.org/2000/svg">
<rect width="200" height="222.208" rx="26" fill="#59dbff"/>
<path d="M87.8406 165.638C87.8406 165.638 86.8406 175.924 92.3406 175.924C97.8406 175.924 96.8406 165.638 96.8406 165.638H87.8406ZM87.8406 151.924V165.638H96.8406V151.924H87.8406Z" fill="white"/>
<path d="M97.0894 74.7155L81.2568 91.3405H103.424L87.591 107.965" stroke="white" stroke-width="6" stroke-linecap="round" stroke-linejoin="round"/>
<path d="M100.653 135.674V143.986C100.653 146.569 100.653 147.86 100.232 148.88C99.6685 150.235 98.5903 151.311 97.2341 151.872C96.2144 152.299 94.9232 152.299 92.3408 152.299C89.7584 152.299 88.4672 152.299 87.4475 151.878C86.0924 151.314 85.0162 150.236 84.455 148.88C84.0283 147.86 84.0283 146.569 84.0283 143.986V135.674" stroke="white" stroke-width="6"/>
<path d="M51.2324 74.7154C47.3998 84.1945 46.9615 94.7069 49.9916 104.472C53.0218 114.237 59.3341 122.655 67.8595 128.299C76.3848 133.944 86.5991 136.468 96.7722 135.444C106.945 134.42 116.452 129.912 123.682 122.682C130.912 115.452 135.42 105.945 136.444 95.7722C137.468 85.5991 134.944 75.3848 129.299 66.8595C123.655 58.3341 115.237 52.0218 105.472 48.9916C95.7069 45.9615 85.1945 46.3998 75.7155 50.2324" stroke="white" stroke-width="6" stroke-linecap="round"/>
</svg>
