<svg width="200" height="250" viewBox="0 0 200 250" fill="none" xmlns="http://www.w3.org/2000/svg">
    <rect width="200" height="222.208" rx="26" fill="#59dbff" />
    <path
        d="M49.9643 49C48.9129 49 47.9046 49.4188 47.1611 50.1643C46.4177 50.9097 46 51.9208 46 52.975V151.025C46 153.219 47.776 155 49.9643 155H61.8571V100.675C61.8571 99.6208 62.2748 98.6097 63.0183 97.8643C63.7617 97.1188 64.77 96.7 65.8214 96.7C66.8728 96.7 67.8812 97.1188 68.6246 97.8643C69.368 98.6097 69.7857 99.6208 69.7857 100.675V155H116.036C117.087 155 118.095 154.581 118.839 153.836C119.582 153.09 120 152.079 120 151.025V52.975C120 51.9208 119.582 50.9097 118.839 50.1643C118.095 49.4188 117.087 49 116.036 49H49.9643ZM69.7857 68.875C69.7857 69.9292 69.368 70.9403 68.6246 71.6858C67.8812 72.4312 66.8728 72.85 65.8214 72.85C64.77 72.85 63.7617 72.4312 63.0183 71.6858C62.2748 70.9403 61.8571 69.9292 61.8571 68.875C61.8571 67.8208 62.2748 66.8097 63.0183 66.0643C63.7617 65.3188 64.77 64.9 65.8214 64.9C66.8728 64.9 67.8812 65.3188 68.6246 66.0643C69.368 66.8097 69.7857 67.8208 69.7857 68.875Z"
        fill="white" />
    <mask id="path-3-outside-1_400_68" maskUnits="userSpaceOnUse" x="77" y="124" width="78"
        height="54" fill="black">
        <rect fill="white" x="77" y="124" width="78" height="54" />
        <path
            d="M133.928 130.342C124.896 128.469 124.843 134.905 116.012 134.905C108.372 134.905 108.085 128.542 98.0956 130.342C81.7384 133.277 79.2507 169.001 87.9012 170.873C92.7189 171.912 95.1462 166.366 101.516 162.385C102.461 163.079 103.56 163.539 104.72 163.728C105.881 163.916 107.07 163.827 108.189 163.468C109.307 163.109 110.324 162.49 111.154 161.664C111.984 160.837 112.603 159.826 112.961 158.714C113.975 158.627 114.991 158.583 116.009 158.584C117.08 158.584 118.08 158.63 119.04 158.712C119.398 159.824 120.019 160.835 120.85 161.662C121.681 162.488 122.698 163.106 123.818 163.464C124.938 163.822 126.127 163.91 127.288 163.721C128.448 163.531 129.547 163.07 130.492 162.375C136.87 166.355 139.297 171.907 144.116 170.867C152.792 169 150.213 133.717 133.928 130.342ZM100.428 148.606H96.6772V144.82H92.8613V141.097H96.6769V137.309H100.428V141.095H104.242V144.819H100.428V148.605L100.428 148.606ZM105.912 161.369C104.938 161.369 103.986 161.082 103.176 160.545C102.365 160.008 101.734 159.244 101.361 158.35C100.988 157.457 100.891 156.474 101.081 155.525C101.271 154.576 101.74 153.705 102.429 153.021C103.118 152.337 103.996 151.872 104.952 151.683C105.907 151.494 106.898 151.591 107.798 151.961C108.698 152.331 109.468 152.958 110.009 153.762C110.55 154.566 110.839 155.512 110.839 156.479C110.839 157.776 110.321 159.02 109.397 159.937C108.474 160.855 107.221 161.37 105.914 161.371L105.912 161.369ZM126.086 161.369C125.112 161.368 124.159 161.081 123.35 160.543C122.54 160.005 121.909 159.241 121.537 158.347C121.165 157.453 121.068 156.47 121.259 155.522C121.45 154.573 121.92 153.703 122.609 153.019C123.298 152.336 124.176 151.871 125.132 151.682C126.087 151.494 127.078 151.592 127.978 151.962C128.878 152.333 129.647 152.96 130.188 153.764C130.728 154.568 131.017 155.514 131.017 156.481C131.017 157.123 130.889 157.76 130.641 158.353C130.393 158.947 130.03 159.486 129.572 159.94C129.114 160.394 128.571 160.754 127.972 161C127.374 161.245 126.733 161.371 126.086 161.371L126.086 161.369ZM129.484 145.424C128.992 145.424 128.512 145.28 128.103 145.008C127.694 144.737 127.376 144.352 127.187 143.901C126.999 143.45 126.95 142.954 127.046 142.476C127.142 141.997 127.379 141.557 127.726 141.212C128.074 140.867 128.517 140.632 128.999 140.537C129.481 140.442 129.981 140.491 130.435 140.678C130.889 140.864 131.277 141.181 131.55 141.586C131.823 141.992 131.969 142.469 131.969 142.957C131.969 143.612 131.707 144.239 131.241 144.702C130.775 145.165 130.143 145.424 129.484 145.424L129.484 145.424ZM134.867 150.768C134.375 150.768 133.895 150.623 133.486 150.352C133.077 150.081 132.759 149.696 132.571 149.245C132.383 148.794 132.333 148.298 132.429 147.819C132.525 147.341 132.762 146.901 133.109 146.556C133.457 146.211 133.9 145.976 134.382 145.881C134.864 145.786 135.364 145.834 135.818 146.021C136.272 146.208 136.66 146.524 136.933 146.93C137.207 147.335 137.352 147.812 137.352 148.3C137.353 148.625 137.288 148.947 137.163 149.246C137.038 149.546 136.854 149.819 136.623 150.048C136.391 150.277 136.117 150.459 135.814 150.583C135.512 150.707 135.188 150.77 134.861 150.769L134.867 150.768ZM134.867 140.079C134.375 140.079 133.895 139.935 133.486 139.664C133.077 139.392 132.759 139.007 132.571 138.556C132.383 138.106 132.333 137.609 132.429 137.131C132.525 136.652 132.762 136.213 133.109 135.868C133.457 135.523 133.9 135.288 134.382 135.192C134.864 135.097 135.364 135.146 135.818 135.333C136.272 135.519 136.66 135.836 136.934 136.241C137.207 136.647 137.352 137.124 137.352 137.612C137.353 137.937 137.288 138.258 137.163 138.558C137.038 138.858 136.854 139.13 136.623 139.36C136.391 139.589 136.117 139.771 135.814 139.894C135.512 140.018 135.188 140.081 134.861 140.081L134.867 140.079ZM140.25 145.423C139.759 145.423 139.278 145.278 138.869 145.007C138.461 144.736 138.142 144.35 137.954 143.9C137.766 143.449 137.716 142.953 137.812 142.474C137.908 141.996 138.145 141.556 138.493 141.211C138.84 140.866 139.283 140.631 139.765 140.536C140.247 140.441 140.747 140.489 141.201 140.676C141.655 140.863 142.044 141.179 142.317 141.585C142.59 141.991 142.736 142.468 142.736 142.955C142.736 143.28 142.671 143.602 142.546 143.902C142.421 144.201 142.237 144.474 142.006 144.703C141.774 144.933 141.5 145.114 141.197 145.238C140.895 145.362 140.571 145.425 140.244 145.424L140.25 145.423Z" />
    </mask>
    <path
        d="M133.928 130.342C124.896 128.469 124.843 134.905 116.012 134.905C108.372 134.905 108.085 128.542 98.0956 130.342C81.7384 133.277 79.2507 169.001 87.9012 170.873C92.7189 171.912 95.1462 166.366 101.516 162.385C102.461 163.079 103.56 163.539 104.72 163.728C105.881 163.916 107.07 163.827 108.189 163.468C109.307 163.109 110.324 162.49 111.154 161.664C111.984 160.837 112.603 159.826 112.961 158.714C113.975 158.627 114.991 158.583 116.009 158.584C117.08 158.584 118.08 158.63 119.04 158.712C119.398 159.824 120.019 160.835 120.85 161.662C121.681 162.488 122.698 163.106 123.818 163.464C124.938 163.822 126.127 163.91 127.288 163.721C128.448 163.531 129.547 163.07 130.492 162.375C136.87 166.355 139.297 171.907 144.116 170.867C152.792 169 150.213 133.717 133.928 130.342ZM100.428 148.606H96.6772V144.82H92.8613V141.097H96.6769V137.309H100.428V141.095H104.242V144.819H100.428V148.605L100.428 148.606ZM105.912 161.369C104.938 161.369 103.986 161.082 103.176 160.545C102.365 160.008 101.734 159.244 101.361 158.35C100.988 157.457 100.891 156.474 101.081 155.525C101.271 154.576 101.74 153.705 102.429 153.021C103.118 152.337 103.996 151.872 104.952 151.683C105.907 151.494 106.898 151.591 107.798 151.961C108.698 152.331 109.468 152.958 110.009 153.762C110.55 154.566 110.839 155.512 110.839 156.479C110.839 157.776 110.321 159.02 109.397 159.937C108.474 160.855 107.221 161.37 105.914 161.371L105.912 161.369ZM126.086 161.369C125.112 161.368 124.159 161.081 123.35 160.543C122.54 160.005 121.909 159.241 121.537 158.347C121.165 157.453 121.068 156.47 121.259 155.522C121.45 154.573 121.92 153.703 122.609 153.019C123.298 152.336 124.176 151.871 125.132 151.682C126.087 151.494 127.078 151.592 127.978 151.962C128.878 152.333 129.647 152.96 130.188 153.764C130.728 154.568 131.017 155.514 131.017 156.481C131.017 157.123 130.889 157.76 130.641 158.353C130.393 158.947 130.03 159.486 129.572 159.94C129.114 160.394 128.571 160.754 127.972 161C127.374 161.245 126.733 161.371 126.086 161.371L126.086 161.369ZM129.484 145.424C128.992 145.424 128.512 145.28 128.103 145.008C127.694 144.737 127.376 144.352 127.187 143.901C126.999 143.45 126.95 142.954 127.046 142.476C127.142 141.997 127.379 141.557 127.726 141.212C128.074 140.867 128.517 140.632 128.999 140.537C129.481 140.442 129.981 140.491 130.435 140.678C130.889 140.864 131.277 141.181 131.55 141.586C131.823 141.992 131.969 142.469 131.969 142.957C131.969 143.612 131.707 144.239 131.241 144.702C130.775 145.165 130.143 145.424 129.484 145.424L129.484 145.424ZM134.867 150.768C134.375 150.768 133.895 150.623 133.486 150.352C133.077 150.081 132.759 149.696 132.571 149.245C132.383 148.794 132.333 148.298 132.429 147.819C132.525 147.341 132.762 146.901 133.109 146.556C133.457 146.211 133.9 145.976 134.382 145.881C134.864 145.786 135.364 145.834 135.818 146.021C136.272 146.208 136.66 146.524 136.933 146.93C137.207 147.335 137.352 147.812 137.352 148.3C137.353 148.625 137.288 148.947 137.163 149.246C137.038 149.546 136.854 149.819 136.623 150.048C136.391 150.277 136.117 150.459 135.814 150.583C135.512 150.707 135.188 150.77 134.861 150.769L134.867 150.768ZM134.867 140.079C134.375 140.079 133.895 139.935 133.486 139.664C133.077 139.392 132.759 139.007 132.571 138.556C132.383 138.106 132.333 137.609 132.429 137.131C132.525 136.652 132.762 136.213 133.109 135.868C133.457 135.523 133.9 135.288 134.382 135.192C134.864 135.097 135.364 135.146 135.818 135.333C136.272 135.519 136.66 135.836 136.934 136.241C137.207 136.647 137.352 137.124 137.352 137.612C137.353 137.937 137.288 138.258 137.163 138.558C137.038 138.858 136.854 139.13 136.623 139.36C136.391 139.589 136.117 139.771 135.814 139.894C135.512 140.018 135.188 140.081 134.861 140.081L134.867 140.079ZM140.25 145.423C139.759 145.423 139.278 145.278 138.869 145.007C138.461 144.736 138.142 144.35 137.954 143.9C137.766 143.449 137.716 142.953 137.812 142.474C137.908 141.996 138.145 141.556 138.493 141.211C138.84 140.866 139.283 140.631 139.765 140.536C140.247 140.441 140.747 140.489 141.201 140.676C141.655 140.863 142.044 141.179 142.317 141.585C142.59 141.991 142.736 142.468 142.736 142.955C142.736 143.28 142.671 143.602 142.546 143.902C142.421 144.201 142.237 144.474 142.006 144.703C141.774 144.933 141.5 145.114 141.197 145.238C140.895 145.362 140.571 145.425 140.244 145.424L140.25 145.423Z"
        fill="white" />
    <path
        d="M133.928 130.342C124.896 128.469 124.843 134.905 116.012 134.905C108.372 134.905 108.085 128.542 98.0956 130.342C81.7384 133.277 79.2507 169.001 87.9012 170.873C92.7189 171.912 95.1462 166.366 101.516 162.385C102.461 163.079 103.56 163.539 104.72 163.728C105.881 163.916 107.07 163.827 108.189 163.468C109.307 163.109 110.324 162.49 111.154 161.664C111.984 160.837 112.603 159.826 112.961 158.714C113.975 158.627 114.991 158.583 116.009 158.584C117.08 158.584 118.08 158.63 119.04 158.712C119.398 159.824 120.019 160.835 120.85 161.662C121.681 162.488 122.698 163.106 123.818 163.464C124.938 163.822 126.127 163.91 127.288 163.721C128.448 163.531 129.547 163.07 130.492 162.375C136.87 166.355 139.297 171.907 144.116 170.867C152.792 169 150.213 133.717 133.928 130.342ZM100.428 148.606H96.6772V144.82H92.8613V141.097H96.6769V137.309H100.428V141.095H104.242V144.819H100.428V148.605L100.428 148.606ZM105.912 161.369C104.938 161.369 103.986 161.082 103.176 160.545C102.365 160.008 101.734 159.244 101.361 158.35C100.988 157.457 100.891 156.474 101.081 155.525C101.271 154.576 101.74 153.705 102.429 153.021C103.118 152.337 103.996 151.872 104.952 151.683C105.907 151.494 106.898 151.591 107.798 151.961C108.698 152.331 109.468 152.958 110.009 153.762C110.55 154.566 110.839 155.512 110.839 156.479C110.839 157.776 110.321 159.02 109.397 159.937C108.474 160.855 107.221 161.37 105.914 161.371L105.912 161.369ZM126.086 161.369C125.112 161.368 124.159 161.081 123.35 160.543C122.54 160.005 121.909 159.241 121.537 158.347C121.165 157.453 121.068 156.47 121.259 155.522C121.45 154.573 121.92 153.703 122.609 153.019C123.298 152.336 124.176 151.871 125.132 151.682C126.087 151.494 127.078 151.592 127.978 151.962C128.878 152.333 129.647 152.96 130.188 153.764C130.728 154.568 131.017 155.514 131.017 156.481C131.017 157.123 130.889 157.76 130.641 158.353C130.393 158.947 130.03 159.486 129.572 159.94C129.114 160.394 128.571 160.754 127.972 161C127.374 161.245 126.733 161.371 126.086 161.371L126.086 161.369ZM129.484 145.424C128.992 145.424 128.512 145.28 128.103 145.008C127.694 144.737 127.376 144.352 127.187 143.901C126.999 143.45 126.95 142.954 127.046 142.476C127.142 141.997 127.379 141.557 127.726 141.212C128.074 140.867 128.517 140.632 128.999 140.537C129.481 140.442 129.981 140.491 130.435 140.678C130.889 140.864 131.277 141.181 131.55 141.586C131.823 141.992 131.969 142.469 131.969 142.957C131.969 143.612 131.707 144.239 131.241 144.702C130.775 145.165 130.143 145.424 129.484 145.424L129.484 145.424ZM134.867 150.768C134.375 150.768 133.895 150.623 133.486 150.352C133.077 150.081 132.759 149.696 132.571 149.245C132.383 148.794 132.333 148.298 132.429 147.819C132.525 147.341 132.762 146.901 133.109 146.556C133.457 146.211 133.9 145.976 134.382 145.881C134.864 145.786 135.364 145.834 135.818 146.021C136.272 146.208 136.66 146.524 136.933 146.93C137.207 147.335 137.352 147.812 137.352 148.3C137.353 148.625 137.288 148.947 137.163 149.246C137.038 149.546 136.854 149.819 136.623 150.048C136.391 150.277 136.117 150.459 135.814 150.583C135.512 150.707 135.188 150.77 134.861 150.769L134.867 150.768ZM134.867 140.079C134.375 140.079 133.895 139.935 133.486 139.664C133.077 139.392 132.759 139.007 132.571 138.556C132.383 138.106 132.333 137.609 132.429 137.131C132.525 136.652 132.762 136.213 133.109 135.868C133.457 135.523 133.9 135.288 134.382 135.192C134.864 135.097 135.364 135.146 135.818 135.333C136.272 135.519 136.66 135.836 136.934 136.241C137.207 136.647 137.352 137.124 137.352 137.612C137.353 137.937 137.288 138.258 137.163 138.558C137.038 138.858 136.854 139.13 136.623 139.36C136.391 139.589 136.117 139.771 135.814 139.894C135.512 140.018 135.188 140.081 134.861 140.081L134.867 140.079ZM140.25 145.423C139.759 145.423 139.278 145.278 138.869 145.007C138.461 144.736 138.142 144.35 137.954 143.9C137.766 143.449 137.716 142.953 137.812 142.474C137.908 141.996 138.145 141.556 138.493 141.211C138.84 140.866 139.283 140.631 139.765 140.536C140.247 140.441 140.747 140.489 141.201 140.676C141.655 140.863 142.044 141.179 142.317 141.585C142.59 141.991 142.736 142.468 142.736 142.955C142.736 143.28 142.671 143.602 142.546 143.902C142.421 144.201 142.237 144.474 142.006 144.703C141.774 144.933 141.5 145.114 141.197 145.238C140.895 145.362 140.571 145.425 140.244 145.424L140.25 145.423Z"
        stroke="#59dbff" stroke-width="12" mask="url(#path-3-outside-1_400_68)" />
</svg>