<svg width="200" height="250" viewBox="0 0 200 250" fill="none" xmlns="http://www.w3.org/2000/svg">
<rect width="200" height="222.208" rx="26" fill="#59dbff"/>
<path d="M56.1563 91.2813C56.1563 93.5077 54.3338 95.3531 52.1518 94.9107C49.5943 94.3923 47.149 93.3795 44.958 91.9156C41.6434 89.7008 39.0599 86.5528 37.5343 82.8697C36.0087 79.1866 35.6096 75.1339 36.3873 71.224C37.165 67.314 39.0847 63.7225 41.9036 60.9036C44.7225 58.0847 48.314 56.165 52.224 55.3873C56.1339 54.6096 60.1867 55.0087 63.8697 56.5343C67.5528 58.0599 70.7008 60.6434 72.9156 63.958C74.3795 66.149 75.3923 68.5943 75.9107 71.1518C76.3531 73.3338 74.5077 75.1563 72.2813 75.1563C70.0549 75.1563 68.3128 73.303 67.5843 71.1992C67.2484 70.2289 66.7884 69.3002 66.2118 68.4373C64.883 66.4485 62.9942 64.8984 60.7843 63.9831C58.5745 63.0677 56.1428 62.8282 53.7969 63.2949C51.4509 63.7615 49.296 64.9133 47.6047 66.6047C45.9133 68.296 44.7615 70.4509 44.2949 72.7969C43.8282 75.1428 44.0677 77.5745 44.9831 79.7843C45.8984 81.9942 47.4485 83.883 49.4373 85.2118C50.3002 85.7884 51.2289 86.2483 52.1992 86.5843C54.303 87.3128 56.1563 89.0549 56.1563 91.2813ZM132.723 94.9107C130.541 95.3531 128.719 93.5077 128.719 91.2813C128.719 89.0549 130.572 87.3128 132.676 86.5843C133.646 86.2483 134.575 85.7884 135.438 85.2118C137.426 83.883 138.977 81.9942 139.892 79.7843C140.807 77.5745 141.047 75.1428 140.58 72.7969C140.114 70.4509 138.962 68.296 137.27 66.6047C135.579 64.9133 133.424 63.7615 131.078 63.2949C128.732 62.8282 126.301 63.0677 124.091 63.9831C121.881 64.8984 119.992 66.4485 118.663 68.4373C118.087 69.3002 117.627 70.2289 117.291 71.1992C116.562 73.303 114.82 75.1563 112.594 75.1563C110.367 75.1563 108.522 73.3338 108.964 71.1518C109.483 68.5943 110.496 66.149 111.959 63.958C114.174 60.6434 117.322 58.0599 121.005 56.5343C124.688 55.0087 128.741 54.6096 132.651 55.3873C136.561 56.165 140.152 58.0847 142.971 60.9036C145.79 63.7225 147.71 67.314 148.488 71.224C149.265 75.1339 148.866 79.1866 147.341 82.8697C145.815 86.5528 143.232 89.7008 139.917 91.9156C137.726 93.3795 135.281 94.3923 132.723 94.9107ZM128.719 167.875C123.375 167.87 118.251 165.744 114.472 161.965C111.652 159.145 109.753 155.576 108.968 151.725C108.524 149.543 110.369 147.719 112.596 147.719C114.821 147.719 116.562 149.571 117.29 151.674C117.626 152.645 118.086 153.574 118.663 154.438C119.992 156.426 121.881 157.977 124.091 158.892C126.301 159.807 128.732 160.047 131.078 159.58C133.424 159.113 135.579 157.962 137.27 156.27C138.962 154.579 140.114 152.424 140.58 150.078C141.047 147.732 140.807 145.301 139.892 143.091C138.977 140.881 137.426 138.992 135.438 137.663C134.575 137.087 133.646 136.627 132.676 136.291C130.572 135.562 128.719 133.82 128.719 131.594C128.719 129.367 130.541 127.522 132.723 127.964C136.577 128.746 140.15 130.644 142.971 133.466C146.751 137.246 148.875 142.373 148.875 147.719C148.875 153.065 146.751 158.191 142.971 161.971C139.191 165.751 134.065 167.875 128.719 167.875Z" fill="white"/>
<path d="M108.563 121.862V101.013L131.569 78.0063C131.954 77.6344 132.261 77.1896 132.472 76.6978C132.684 76.206 132.795 75.677 132.799 75.1417C132.804 74.6065 132.702 74.0756 132.499 73.5802C132.297 73.0848 131.997 72.6347 131.619 72.2562C131.24 71.8777 130.79 71.5783 130.295 71.3756C129.799 71.1729 129.269 71.0709 128.733 71.0756C128.198 71.0802 127.669 71.1915 127.177 71.4027C126.685 71.614 126.241 71.9211 125.869 72.3061L107.728 90.4468C106.713 87.2008 104.681 84.333 101.93 82.3079C99.1786 80.2827 95.8519 79.1904 92.4356 79.1904C89.0193 79.1904 85.6926 80.2827 82.9413 82.3079C80.19 84.333 78.1583 87.2008 77.1431 90.4468L59.0065 72.3061C58.2505 71.5504 57.2253 71.1258 56.1564 71.1258C55.0874 71.1258 54.0622 71.5504 53.3063 72.3061C52.5505 73.0621 52.126 74.0873 52.126 75.1562C52.126 76.2252 52.5505 77.2503 53.3063 78.0063L76.3126 101.013V121.862L60 138C60 138 57.5 141.5 59.5 143.5C61.5 145.5 65.5 143 65.5 143L77.1471 132.428C78.1623 135.69 80.194 138.542 82.9453 140.567C85.6966 142.592 89.0234 143.685 92.4396 143.685C95.8559 143.685 99.1827 142.592 101.934 140.567C104.685 138.542 106.717 135.69 107.732 132.428L125.873 150.569C126.633 151.303 127.651 151.709 128.708 151.7C129.765 151.691 130.776 151.267 131.524 150.52C132.271 149.772 132.695 148.761 132.704 147.704C132.714 146.647 132.307 145.629 131.573 144.869L108.563 121.862ZM100.5 127.562C100.5 129.701 99.6507 131.752 98.1387 133.264C96.6266 134.776 94.5759 135.625 92.4376 135.625C90.2993 135.625 88.2486 134.776 86.7366 133.264C85.2246 131.752 84.3751 129.701 84.3751 127.562V95.3125C84.3751 93.1742 85.2246 91.1234 86.7366 89.6114C88.2486 88.0994 90.2993 87.25 92.4376 87.25C94.5759 87.25 96.6266 88.0994 98.1387 89.6114C99.6507 91.1234 100.5 93.1742 100.5 95.3125V127.562Z" fill="white"/>
<path d="M33 178V156.667C33 153.838 34.174 151.125 36.2637 149.124C38.3534 147.124 41.1876 146 44.1429 146C47.0981 146 49.9323 147.124 52.022 149.124C54.1117 151.125 55.2857 153.838 55.2857 156.667V178M33 167.333H55.2857M72 146V178" stroke="white" stroke-width="9" stroke-linecap="round" stroke-linejoin="round"/>
</svg>
