<svg width="342" height="342" viewBox="0 0 342 342" fill="none" xmlns="http://www.w3.org/2000/svg">
<path d="M23.8378 336H318.162C322.893 336 327.43 334.121 330.775 330.775C334.121 327.43 336 322.893 336 318.162V23.8378C336 19.1069 334.121 14.5698 330.775 11.2246C327.43 7.87934 322.893 6 318.162 6H23.8378C19.1069 6 14.5698 7.87934 11.2246 11.2246C7.87934 14.5698 6 19.1069 6 23.8378V318.162C6 322.893 7.87934 327.43 11.2246 330.775C14.5698 334.121 19.1069 336 23.8378 336Z" stroke="white" stroke-width="11" stroke-linecap="round" stroke-linejoin="round"/>
<path d="M266.201 95.6709H309.243M287.722 160.636V95.6709M208.174 95.6709V139.115C208.174 144.823 210.441 150.297 214.477 154.333C218.514 158.369 250.988 160.636 229.695 160.636C235.403 160.636 240.877 158.369 244.913 154.333C248.949 150.297 251.217 144.823 251.217 139.115V95.6709M117.54 128.154C121.847 128.154 125.978 129.865 129.024 132.911C132.07 135.956 133.781 140.087 133.781 144.395C133.781 148.702 132.07 152.833 129.024 155.879C125.978 158.925 121.847 160.636 117.54 160.636H90.7386V95.6709H117.54C121.847 95.6709 125.978 97.382 129.024 100.428C132.07 103.474 133.781 107.605 133.781 111.912C133.781 116.22 132.07 120.351 129.024 123.397C125.978 126.442 121.847 128.154 117.54 128.154ZM117.54 128.154H90.7386M68.3254 138.901H40.1773M33.167 160.449L54.2781 95.6709L75.3981 160.636" stroke="white" stroke-width="11" stroke-linecap="round" stroke-linejoin="round"/>
<path d="M191.896 117.192C191.896 105.306 182.261 95.6709 170.375 95.6709C158.489 95.6709 148.854 105.306 148.854 117.192V139.124C148.854 151.01 158.489 160.645 170.375 160.645C182.261 160.645 191.896 151.01 191.896 139.124V117.192Z" stroke="white" stroke-width="11" stroke-linecap="round" stroke-linejoin="round"/>
<path d="M33.2549 181.364V224.808C33.2549 230.516 35.5250 235.99 39.5584 240.026C43.5944 244.062 49.0684 246.329 54.7762 246.329C60.4841 246.329 65.9581 244.062 69.9941 240.026C74.0302 235.99 76.2976 230.516 76.2976 224.808V181.364" stroke="white" stroke-width="11" stroke-linecap="round" stroke-linejoin="round"/>
<path d="M137.372 181.347H109.849C101.477 181.347 94.6904 188.134 94.6904 196.505V196.505C94.6904 205.032 101.721 211.881 110.244 211.659L121.582 211.363C130.235 211.137 137.372 218.09 137.372 226.747V226.747C137.372 235.246 130.482 242.136 121.983 242.136H94.6904" stroke="white" stroke-width="10" stroke-linecap="round"/>
</svg>
