            <svg xmlns="http://www.w3.org/2000/svg" version="1.1" xmlns:xlink="http://www.w3.org/1999/xlink"
                xmlns:svgjs="http://svgjs.dev/svgjs" viewBox="0 0 800 1050" class="woilah">
                <rect width="100%" height="100%" fill="none">
                </rect>
                <g fill="#59dbff71">
                    <rect width="42" height="3" x="217" y="525.5" rx="1.5" transform="rotate(47, 238, 527)"
                        opacity="0.32"></rect>
                    <rect width="295" height="3" x="-46.5" y="338.5" rx="1.5" transform="rotate(47, 101, 340)"
                        opacity="0.24"></rect>
                    <rect width="301" height="3" x="233.5" y="285.5" rx="1.5" transform="rotate(47, 384, 287)"
                        opacity="0.98"></rect>
                    <rect width="47" height="3" x="27.5" y="187.5" rx="1.5" transform="rotate(47, 51, 189)"
                        opacity="0.80"></rect>
                    <rect width="188" height="3" x="102" y="215.5" rx="1.5" transform="rotate(47, 196, 217)"
                        opacity="0.93"></rect>
                    <rect width="107" height="3" x="54.5" y="395.5" rx="1.5" transform="rotate(47, 108, 397)"
                        opacity="0.49"></rect>
                    <rect width="66" height="3" x="535" y="391.5" rx="1.5" transform="rotate(47, 568, 393)"
                        opacity="0.49"></rect>
                    <rect width="361" height="3" x="-153.5" y="743.5" rx="1.5" transform="rotate(47, 27, 745)"
                        opacity="0.57"></rect>
                    <rect width="482" height="3" x="501" y="358.5" rx="1.5" transform="rotate(47, 742, 360)"
                        opacity="0.36"></rect>
                    <rect width="283" height="3" x="558.5" y="586.5" rx="1.5" transform="rotate(47, 700, 588)"
                        opacity="0.95"></rect>
                    <rect width="175" height="3" x="689.5" y="59.5" rx="1.5" transform="rotate(47, 777, 61)"
                        opacity="0.67"></rect>
                    <rect width="390" height="3" x="452" y="402.5" rx="1.5" transform="rotate(47, 647, 404)"
                        opacity="0.44"></rect>
                    <rect width="366" height="3" x="414" y="335.5" rx="1.5" transform="rotate(47, 597, 337)"
                        opacity="0.28"></rect>
                    <rect width="200" height="3" x="548" y="138.5" rx="1.5" transform="rotate(47, 640, 140)"
                        opacity="0.80"></rect>
                    <rect width="257" height="3" x="605.5" y="703.5" rx="1.5" transform="rotate(47, 734, 705)"
                        opacity="0.71"></rect>
                    <rect width="296" height="3" x="164" y="409.5" rx="1.5" transform="rotate(47, 312, 411)"
                        opacity="0.18"></rect>
                    <rect width="146" height="3" x="278" y="370.5" rx="1.5" transform="rotate(47, 351, 372)"
                        opacity="0.75"></rect>
                    <rect width="59" height="3" x="730.5" y="444.5" rx="1.5" transform="rotate(47, 760, 446)"
                        opacity="0.25"></rect>
                    <rect width="400" height="3" x="209" y="143.5" rx="1.5" transform="rotate(47, 409, 145)"
                        opacity="0.54"></rect>
                    <rect width="206" height="3" x="329" y="635.5" rx="1.5" transform="rotate(47, 432, 637)"
                        opacity="0.34"></rect>
                    <rect width="135" height="3" x="-0.5" y="28.5" rx="1.5" transform="rotate(47, 67, 30)"
                        opacity="0.42"></rect>
                    <rect width="428" height="3" x="498" y="264.5" rx="1.5" transform="rotate(47, 712, 266)"
                        opacity="0.30"></rect>
                    <rect width="285" height="3" x="342.5" y="569.5" rx="1.5" transform="rotate(47, 485, 571)"
                        opacity="0.89"></rect>
                    <rect width="114" height="3" x="424" y="249.5" rx="1.5" transform="rotate(47, 481, 251)"
                        opacity="0.88"></rect>
                    <rect width="181" height="3" x="325.5" y="694.5" rx="1.5" transform="rotate(47, 416, 696)"
                        opacity="0.59"></rect>
                    <rect width="117" height="3" x="80.5" y="232.5" rx="1.5" transform="rotate(47, 139, 234)"
                        opacity="0.61"></rect>
                    <rect width="452" height="3" x="-192" y="543.5" rx="1.5" transform="rotate(47, 34, 545)"
                        opacity="0.86"></rect>
                    <rect width="273" height="3" x="636.5" y="197.5" rx="1.5" transform="rotate(47, 773, 199)"
                        opacity="0.93"></rect>
                    <rect width="111" height="3" x="10.5" y="141.5" rx="1.5" transform="rotate(47, 66, 143)"
                        opacity="0.48"></rect>
                    <rect width="60" height="3" x="106" y="299.5" rx="1.5" transform="rotate(47, 136, 301)"
                        opacity="0.31"></rect>
                    <rect width="73" height="3" x="120.5" y="26.5" rx="1.5" transform="rotate(47, 157, 28)"
                        opacity="0.61"></rect>
                    <rect width="55" height="3" x="434.5" y="24.5" rx="1.5" transform="rotate(47, 462, 26)"
                        opacity="0.27"></rect>
                    <rect width="258" height="3" x="170" y="309.5" rx="1.5" transform="rotate(47, 299, 311)"
                        opacity="0.78"></rect>
                    <rect width="395" height="3" x="-166.5" y="645.5" rx="1.5" transform="rotate(47, 31, 647)"
                        opacity="0.66"></rect>
                    <rect width="308" height="3" x="479" y="497.5" rx="1.5" transform="rotate(47, 633, 499)"
                        opacity="0.52"></rect>
                    <rect width="367" height="3" x="474.5" y="310.5" rx="1.5" transform="rotate(47, 658, 312)"
                        opacity="0.84"></rect>
                    <rect width="38" height="3" x="230" y="35.5" rx="1.5" transform="rotate(47, 249, 37)"
                        opacity="0.56"></rect>
                    <rect width="471" height="3" x="405.5" y="51.5" rx="1.5" transform="rotate(47, 641, 53)"
                        opacity="0.83"></rect>
                    <rect width="314" height="3" x="367" y="203.5" rx="1.5" transform="rotate(47, 524, 205)"
                        opacity="0.81"></rect>
                    <rect width="31" height="3" x="732.5" y="164.5" rx="1.5" transform="rotate(47, 748, 166)"
                        opacity="0.45"></rect>
                    <rect width="70" height="3" x="452" y="509.5" rx="1.5" transform="rotate(47, 487, 511)"
                        opacity="0.86"></rect>
                    <rect width="382" height="3" x="64" y="372.5" rx="1.5" transform="rotate(47, 255, 374)"
                        opacity="0.92"></rect>
                    <rect width="149" height="3" x="67.5" y="649.5" rx="1.5" transform="rotate(47, 142, 651)"
                        opacity="0.52"></rect>
                    <rect width="271" height="3" x="203.5" y="150.5" rx="1.5" transform="rotate(47, 339, 152)"
                        opacity="0.09"></rect>
                    <rect width="314" height="3" x="534" y="189.5" rx="1.5" transform="rotate(47, 691, 191)"
                        opacity="0.75"></rect>
                    <rect width="294" height="3" x="32" y="163.5" rx="1.5" transform="rotate(47, 179, 165)"
                        opacity="0.79"></rect>
                    <rect width="158" height="3" x="656" y="642.5" rx="1.5" transform="rotate(47, 735, 644)"
                        opacity="0.84"></rect>
                    <rect width="30" height="3" x="72" y="770.5" rx="1.5" transform="rotate(47, 87, 772)"
                        opacity="0.38"></rect>
                    <rect width="134" height="3" x="363" y="486.5" rx="1.5" transform="rotate(47, 430, 488)"
                        opacity="0.82"></rect>
                    <rect width="405" height="3" x="28.5" y="755.5" rx="1.5" transform="rotate(47, 231, 757)"
                        opacity="0.44"></rect>
                    <rect width="348" height="3" x="365" y="263.5" rx="1.5" transform="rotate(47, 539, 265)"
                        opacity="0.27"></rect>
                    <rect width="91" height="3" x="-17.5" y="342.5" rx="1.5" transform="rotate(47, 28, 344)"
                        opacity="0.88"></rect>
                    <rect width="344" height="3" x="580" y="522.5" rx="1.5" transform="rotate(47, 752, 524)"
                        opacity="0.76"></rect>
                    <rect width="201" height="3" x="82.5" y="273.5" rx="1.5" transform="rotate(47, 183, 275)"
                        opacity="0.08"></rect>
                    <rect width="363" height="3" x="238.5" y="248.5" rx="1.5" transform="rotate(47, 420, 250)"
                        opacity="0.59"></rect>
                    <rect width="190" height="3" x="685" y="708.5" rx="1.5" transform="rotate(47, 780, 710)"
                        opacity="0.35"></rect>
                    <rect width="193" height="3" x="205.5" y="659.5" rx="1.5" transform="rotate(47, 302, 661)"
                        opacity="0.86"></rect>
                    <rect width="77" height="3" x="362.5" y="357.5" rx="1.5" transform="rotate(47, 401, 359)"
                        opacity="0.39"></rect>
                    <rect width="60" height="3" x="32" y="230.5" rx="1.5" transform="rotate(47, 62, 232)"
                        opacity="0.33"></rect>
                    <rect width="168" height="3" x="262" y="316.5" rx="1.5" transform="rotate(47, 346, 318)"
                        opacity="0.57"></rect>
                    <rect width="205" height="3" x="342.5" y="345.5" rx="1.5" transform="rotate(47, 445, 347)"
                        opacity="0.57"></rect>
                    <rect width="245" height="3" x="443.5" y="488.5" rx="1.5" transform="rotate(47, 566, 490)"
                        opacity="0.95"></rect>
                    <rect width="67" height="3" x="288.5" y="481.5" rx="1.5" transform="rotate(47, 322, 483)"
                        opacity="0.13"></rect>
                    <rect width="221" height="3" x="344.5" y="199.5" rx="1.5" transform="rotate(47, 455, 201)"
                        opacity="0.64"></rect>
                    <rect width="285" height="3" x="89.5" y="135.5" rx="1.5" transform="rotate(47, 232, 137)"
                        opacity="0.93"></rect>
                    <rect width="148" height="3" x="504" y="687.5" rx="1.5" transform="rotate(47, 578, 689)"
                        opacity="0.39"></rect>
                    <rect width="166" height="3" x="26" y="151.5" rx="1.5" transform="rotate(47, 109, 153)"
                        opacity="0.34"></rect>
                    <rect width="200" height="3" x="84" y="366.5" rx="1.5" transform="rotate(47, 200, 368)"
                        opacity="0.73"></rect>
                    <rect width="55" height="3" x="561.5" y="215.5" rx="1.5" transform="rotate(47, 589, 217)"
                        opacity="0.23"></rect>
                    <rect width="117" height="3" x="492.5" y="760.5" rx="1.5" transform="rotate(47, 551, 762)"
                        opacity="0.84"></rect>
                    <rect width="88" height="3" x="25" y="481.5" rx="1.5" transform="rotate(47, 69, 483)"
                        opacity="0.42"></rect>
                    <rect width="49" height="3" x="132.5" y="712.5" rx="1.5" transform="rotate(47, 157, 714)"
                        opacity="0.91"></rect>
                    <rect width="328" height="3" x="274" y="575.5" rx="1.5" transform="rotate(47, 438, 577)"
                        opacity="0.77"></rect>
                    <rect width="251" height="3" x="154.5" y="130.5" rx="1.5" transform="rotate(47, 280, 132)"
                        opacity="0.74"></rect>
                    <rect width="193" height="3" x="597.5" y="671.5" rx="1.5" transform="rotate(47, 694, 673)"
                        opacity="0.44"></rect>
                    <rect width="228" height="3" x="224" y="635.5" rx="1.5" transform="rotate(47, 338, 637)"
                        opacity="0.61"></rect>
                    <rect width="202" height="3" x="629" y="120.5" rx="1.5" transform="rotate(47, 730, 122)"
                        opacity="0.97"></rect>
                    <rect width="382" height="3" x="166" y="27.5" rx="1.5" transform="rotate(47, 357, 29)"
                        opacity="0.23"></rect>
                    <rect width="287" height="3" x="489.5" y="722.5" rx="1.5" transform="rotate(47, 633, 724)"
                        opacity="0.98"></rect>
                    <rect width="31" height="3" x="-1.5" y="194.5" rx="1.5" transform="rotate(47, 14, 196)"
                        opacity="0.45"></rect>
                    <rect width="208" height="3" x="-27" y="283.5" rx="1.5" transform="rotate(47, 77, 285)"
                        opacity="0.21"></rect>
                    <rect width="272" height="3" x="21" y="770.5" rx="1.5" transform="rotate(47, 157, 772)"
                        opacity="0.77"></rect>
                    <rect width="233" height="3" x="409.5" y="548.5" rx="1.5" transform="rotate(47, 526, 550)"
                        opacity="0.72"></rect>
                    <rect width="43" height="3" x="522.5" y="119.5" rx="1.5" transform="rotate(47, 544, 121)"
                        opacity="0.17"></rect>
                    <rect width="190" height="3" x="496" y="277.5" rx="1.5" transform="rotate(47, 591, 279)"
                        opacity="0.77"></rect>
                    <rect width="69" height="3" x="175.5" y="668.5" rx="1.5" transform="rotate(47, 210, 670)"
                        opacity="0.97"></rect>
                    <rect width="38" height="3" x="639" y="659.5" rx="1.5" transform="rotate(47, 658, 661)"
                        opacity="0.50"></rect>
                    <rect width="132" height="3" x="392" y="411.5" rx="1.5" transform="rotate(47, 458, 413)"
                        opacity="0.80"></rect>
                    <rect width="265" height="3" x="-24.5" y="200.5" rx="1.5" transform="rotate(47, 108, 202)"
                        opacity="0.21"></rect>
                    <rect width="390" height="3" x="305" y="363.5" rx="1.5" transform="rotate(47, 500, 365)"
                        opacity="0.57"></rect>
                    <rect width="237" height="3" x="-31.5" y="698.5" rx="1.5" transform="rotate(47, 87, 700)"
                        opacity="0.32"></rect>
                    <rect width="238" height="3" x="504" y="671.5" rx="1.5" transform="rotate(47, 623, 673)"
                        opacity="0.22"></rect>
                    <rect width="166" height="3" x="243" y="77.5" rx="1.5" transform="rotate(47, 326, 79)"
                        opacity="0.20"></rect>
                    <rect width="230" height="3" x="407" y="684.5" rx="1.5" transform="rotate(47, 522, 686)"
                        opacity="0.44"></rect>
                    <rect width="454" height="3" x="254" y="751.5" rx="1.5" transform="rotate(47, 481, 753)"
                        opacity="0.35"></rect>
                    <rect width="370" height="3" x="59" y="299.5" rx="1.5" transform="rotate(47, 244, 301)"
                        opacity="0.63"></rect>
                    <rect width="204" height="3" x="433" y="322.5" rx="1.5" transform="rotate(47, 535, 324)"
                        opacity="0.09"></rect>
                    <rect width="307" height="3" x="-131.5" y="268.5" rx="1.5" transform="rotate(47, 22, 270)"
                        opacity="0.10"></rect>
                    <rect width="210" height="3" x="80" y="80.5" rx="1.5" transform="rotate(47, 185, 82)"
                        opacity="0.47"></rect>
                    <rect width="90" height="3" x="577" y="772.5" rx="1.5" transform="rotate(47, 622, 774)"
                        opacity="0.51"></rect>
                    <rect width="146" height="3" x="250" y="569.5" rx="1.5" transform="rotate(47, 296, 571)"
                        opacity="0.90"></rect>
                    <rect width="148" height="3" x="503" y="161.5" rx="1.5" transform="rotate(47, 577, 163)"
                        opacity="0.63"></rect>
                    <rect width="73" height="3" x="217.5" y="651.5" rx="1.5" transform="rotate(47, 254, 653)"
                        opacity="0.52"></rect>
                    <rect width="229" height="3" x="649.5" y="565.5" rx="1.5" transform="rotate(47, 764, 567)"
                        opacity="0.31"></rect>
                    <rect width="124" height="3" x="315" y="610.5" rx="1.5" transform="rotate(47, 377, 612)"
                        opacity="0.48"></rect>
                    <rect width="45" height="3" x="618.5" y="594.5" rx="1.5" transform="rotate(47, 641, 596)"
                        opacity="0.78"></rect>
                    <rect width="236" height="3" x="467" y="559.5" rx="1.5" transform="rotate(47, 585, 561)"
                        opacity="0.90"></rect>
                    <rect width="101" height="3" x="438.5" y="460.5" rx="1.5" transform="rotate(47, 489, 462)"
                        opacity="0.21"></rect>
                    <rect width="216" height="3" x="-69" y="412.5" rx="1.5" transform="rotate(47, 39, 414)"
                        opacity="0.69"></rect>
                    <rect width="424" height="3" x="-20" y="575.5" rx="1.5" transform="rotate(47, 192, 577)"
                        opacity="0.18"></rect>
                    <rect width="119" height="3" x="713.5" y="273.5" rx="1.5" transform="rotate(47, 773, 275)"
                        opacity="0.44"></rect>
                    <rect width="428" height="3" x="180" y="764.5" rx="1.5" transform="rotate(47, 394, 766)"
                        opacity="0.99"></rect>
                    <rect width="163" height="3" x="634.5" y="42.5" rx="1.5" transform="rotate(47, 716, 44)"
                        opacity="0.90"></rect>
                    <rect width="364" height="3" x="316" y="633.5" rx="1.5" transform="rotate(47, 498, 635)"
                        opacity="0.62"></rect>
                    <rect width="345" height="3" x="-44.5" y="566.5" rx="1.5" transform="rotate(47, 128, 568)"
                        opacity="0.38"></rect>
                    <rect width="216" height="3" x="460" y="20.5" rx="1.5" transform="rotate(47, 568, 22)"
                        opacity="0.31"></rect>
                    <rect width="197" height="3" x="281.5" y="531.5" rx="1.5" transform="rotate(47, 380, 533)"
                        opacity="0.58"></rect>
                    <rect width="52" height="3" x="740" y="766.5" rx="1.5" transform="rotate(47, 766, 768)"
                        opacity="0.15"></rect>
                    <rect width="288" height="3" x="326" y="297.5" rx="1.5" transform="rotate(47, 470, 299)"
                        opacity="0.44"></rect>
                    <rect width="191" height="3" x="342.5" y="80.5" rx="1.5" transform="rotate(47, 438, 82)"
                        opacity="0.10"></rect>
                    <rect width="31" height="3" x="763.5" y="655.5" rx="1.5" transform="rotate(47, 779, 657)"
                        opacity="0.47"></rect>
                    <rect width="193" height="3" x="-16.5" y="604.5" rx="1.5" transform="rotate(47, 80, 606)"
                        opacity="0.71"></rect>
                    <rect width="431" height="3" x="152.5" y="212.5" rx="1.5" transform="rotate(47, 368, 214)"
                        opacity="0.71"></rect>
                    <rect width="230" height="3" x="276" y="431.5" rx="1.5" transform="rotate(47, 391, 433)"
                        opacity="0.45"></rect>
                    <rect width="379" height="3" x="49.5" y="450.5" rx="1.5" transform="rotate(47, 239, 452)"
                        opacity="0.07"></rect>
                    <rect width="73" height="3" x="507.5" y="67.5" rx="1.5" transform="rotate(47, 544, 69)"
                        opacity="0.76"></rect>
                    <rect width="257" height="3" x="-84.5" y="77.5" rx="1.5" transform="rotate(47, 44, 79)"
                        opacity="0.43"></rect>
                    <rect width="240" height="3" x="200" y="231.5" rx="1.5" transform="rotate(47, 304, 233)"
                        opacity="0.63"></rect>
                    <rect width="32" height="3" x="4" y="130.5" rx="1.5" transform="rotate(47, 20, 132)" opacity="0.94">
                    </rect>
                    <rect width="248" height="3" x="9" y="108.5" rx="1.5" transform="rotate(47, 133, 110)"
                        opacity="0.39"></rect>
                    <rect width="28" height="3" x="762" y="604.5" rx="1.5" transform="rotate(47, 776, 606)"
                        opacity="0.56"></rect>
                    <rect width="47" height="3" x="129.5" y="475.5" rx="1.5" transform="rotate(47, 153, 477)"
                        opacity="0.79"></rect>
                    <rect width="32" height="3" x="522" y="432.5" rx="1.5" transform="rotate(47, 538, 434)"
                        opacity="0.79"></rect>
                    <rect width="150" height="3" x="237" y="741.5" rx="1.5" transform="rotate(47, 312, 743)"
                        opacity="0.66"></rect>
                    <rect width="333" height="3" x="79.5" y="228.5" rx="1.5" transform="rotate(47, 246, 230)"
                        opacity="0.13"></rect>
                    <rect width="120" height="3" x="583" y="232.5" rx="1.5" transform="rotate(47, 643, 234)"
                        opacity="0.65"></rect>
                    <rect width="64" height="3" x="665" y="759.5" rx="1.5" transform="rotate(47, 697, 761)"
                        opacity="0.78"></rect>
                    <rect width="31" height="3" x="178.5" y="325.5" rx="1.5" transform="rotate(47, 194, 327)"
                        opacity="0.60"></rect>
                    <rect width="87" height="3" x="439.5" y="140.5" rx="1.5" transform="rotate(47, 483, 142)"
                        opacity="0.35"></rect>
                    <rect width="371" height="3" x="507.5" y="486.5" rx="1.5" transform="rotate(47, 693, 488)"
                        opacity="0.70"></rect>
                    <rect width="242" height="3" x="451" y="621.5" rx="1.5" transform="rotate(47, 572, 623)"
                        opacity="0.50"></rect>
                    <rect width="213" height="3" x="64.5" y="409.5" rx="1.5" transform="rotate(47, 171, 411)"
                        opacity="0.20"></rect>
                </g>
            </svg>