<svg width="200" height="250" viewBox="0 0 200 250" fill="none" xmlns="http://www.w3.org/2000/svg">
<rect width="200" height="222.208" rx="26" fill="#59dbff"/>
<path d="M133.22 138.5H50.7801C48.0381 138.497 45.4094 137.406 43.4705 135.467C41.5317 133.528 40.4409 130.899 40.4375 128.157V83.5301C40.4409 80.7881 41.5317 78.1594 43.4705 76.2205C45.4094 74.2817 48.0381 73.1909 50.7801 73.1875H133.22C135.962 73.1909 138.591 74.2817 140.529 76.2205C142.468 78.1594 143.559 80.7881 143.562 83.5301V128.157C143.559 130.899 142.468 133.528 140.529 135.467C138.591 137.406 135.962 138.497 133.22 138.5Z" fill="white"/>
<path d="M64.5 145.375H119.5H64.5Z" fill="white"/>
<path d="M64.5 145.375H119.5" stroke="white" stroke-width="6" stroke-miterlimit="10" stroke-linecap="round"/>
</svg>
