<svg width="200" height="250" viewBox="0 0 200 250" fill="none" xmlns="http://www.w3.org/2000/svg">
<rect width="200" height="222.208" rx="26" fill="#59dbff"/>
<path d="M146.655 99.2947H158.813V123.688H146.655V99.2947ZM25.0791 99.2947H37.2367V123.688H25.0791V99.2947ZM128.419 93.1965C128.419 89.9618 127.138 86.8595 124.858 84.5723C122.578 82.285 119.486 81 116.261 81H67.6307C64.4063 81 61.314 82.285 59.034 84.5723C56.754 86.8595 55.4731 89.9618 55.4731 93.1965C52.2487 93.1965 49.1564 94.4815 46.8764 96.7687C44.5964 99.056 43.3155 102.158 43.3155 105.393V117.589C43.3155 120.824 44.5964 123.926 46.8764 126.214C49.1564 128.501 52.2487 129.786 55.4731 129.786C55.4731 133.021 56.754 136.123 59.034 138.41C61.314 140.697 64.4063 141.982 67.6307 141.982H73.8797L83.618 125.054C84.4621 123.587 85.676 122.369 87.1379 121.523C88.5997 120.676 90.258 120.23 91.946 120.23C93.6339 120.23 95.2922 120.676 96.754 121.523C98.2159 122.369 99.4298 123.587 100.274 125.054L110.012 141.982H116.261C119.486 141.982 122.578 140.697 124.858 138.41C127.138 136.123 128.419 133.021 128.419 129.786C131.643 129.786 134.736 128.501 137.016 126.214C139.295 123.926 140.576 120.824 140.576 117.589V105.393C140.576 102.158 139.295 99.056 137.016 96.7687C134.736 94.4815 131.643 93.1965 128.419 93.1965ZM122.34 111.491H61.5519V99.2947H122.34V111.491Z" fill="white"/>
</svg>
