<svg width="200" height="250" viewBox="0 0 200 250" fill="none" xmlns="http://www.w3.org/2000/svg">
<rect width="200" height="222.208" rx="26" fill="#59dbff"/>
<path d="M131.608 111.145C131.608 98.6256 125.762 87.4374 116.673 80.2415L111.956 52H72.652L67.9847 80.2415C58.8465 87.4374 53 98.5763 53 111.145C53 123.713 58.8465 134.852 67.9847 142.048L72.652 170.289H111.956L116.673 142.048C121.331 138.366 125.095 133.672 127.682 128.319C130.269 122.966 131.612 117.094 131.608 111.145ZM62.826 111.145C62.826 94.8305 76.042 81.5723 92.3041 81.5723C108.566 81.5723 121.782 94.8305 121.782 111.145C121.782 127.459 108.566 140.717 92.3041 140.717C76.042 140.717 62.826 127.459 62.826 111.145Z" fill="white"/>
</svg>
