<svg id="visual" viewBox="0 0 900 600" width="1500" height="1000" xmlns="http://www.w3.org/2000/svg"
    xmlns:xlink="http://www.w3.org/1999/xlink" version="1.1">
    <rect x="0" y="0" width="1500" height="1000" fill="#ffffff"></rect>
    <defs>
        <linearGradient id="grad1_0" x1="33.3%" y1="0%" x2="100%" y2="100%">
            <stop offset="20%" stop-color="#59dbff" stop-opacity="1"></stop>
            <stop offset="80%" stop-color="#59dbff" stop-opacity="1"></stop>
        </linearGradient>
    </defs>
    <defs>
        <linearGradient id="grad1_1" x1="33.3%" y1="0%" x2="100%" y2="100%">
            <stop offset="20%" stop-color="#59dbff" stop-opacity="1"></stop>
            <stop offset="80%" stop-color="#87e2ff" stop-opacity="1"></stop>
        </linearGradient>
    </defs>
    <defs>
        <linearGradient id="grad1_2" x1="33.3%" y1="0%" x2="100%" y2="100%">
            <stop offset="20%" stop-color="#aaeaff" stop-opacity="1"></stop>
            <stop offset="80%" stop-color="#87e2ff" stop-opacity="1"></stop>
        </linearGradient>
    </defs>
    <defs>
        <linearGradient id="grad1_3" x1="33.3%" y1="0%" x2="100%" y2="100%">
            <stop offset="20%" stop-color="#aaeaff" stop-opacity="1"></stop>
            <stop offset="80%" stop-color="#c8f1ff" stop-opacity="1"></stop>
        </linearGradient>
    </defs>
    <defs>
        <linearGradient id="grad1_4" x1="33.3%" y1="0%" x2="100%" y2="100%">
            <stop offset="20%" stop-color="#e4f8ff" stop-opacity="1"></stop>
            <stop offset="80%" stop-color="#c8f1ff" stop-opacity="1"></stop>
        </linearGradient>
    </defs>
    <defs>
        <linearGradient id="grad1_5" x1="33.3%" y1="0%" x2="100%" y2="100%">
            <stop offset="20%" stop-color="#e4f8ff" stop-opacity="1"></stop>
            <stop offset="80%" stop-color="#ffffff" stop-opacity="1"></stop>
        </linearGradient>
    </defs>
    <defs>
        <linearGradient id="grad2_0" x1="0%" y1="0%" x2="66.7%" y2="100%">
            <stop offset="20%" stop-color="#59dbff" stop-opacity="1"></stop>
            <stop offset="80%" stop-color="#59dbff" stop-opacity="1"></stop>
        </linearGradient>
    </defs>
    <defs>
        <linearGradient id="grad2_1" x1="0%" y1="0%" x2="66.7%" y2="100%">
            <stop offset="20%" stop-color="#87e2ff" stop-opacity="1"></stop>
            <stop offset="80%" stop-color="#59dbff" stop-opacity="1"></stop>
        </linearGradient>
    </defs>
    <defs>
        <linearGradient id="grad2_2" x1="0%" y1="0%" x2="66.7%" y2="100%">
            <stop offset="20%" stop-color="#87e2ff" stop-opacity="1"></stop>
            <stop offset="80%" stop-color="#aaeaff" stop-opacity="1"></stop>
        </linearGradient>
    </defs>
    <defs>
        <linearGradient id="grad2_3" x1="0%" y1="0%" x2="66.7%" y2="100%">
            <stop offset="20%" stop-color="#c8f1ff" stop-opacity="1"></stop>
            <stop offset="80%" stop-color="#aaeaff" stop-opacity="1"></stop>
        </linearGradient>
    </defs>
    <defs>
        <linearGradient id="grad2_4" x1="0%" y1="0%" x2="66.7%" y2="100%">
            <stop offset="20%" stop-color="#c8f1ff" stop-opacity="1"></stop>
            <stop offset="80%" stop-color="#e4f8ff" stop-opacity="1"></stop>
        </linearGradient>
    </defs>
    <defs>
        <linearGradient id="grad2_5" x1="0%" y1="0%" x2="66.7%" y2="100%">
            <stop offset="20%" stop-color="#ffffff" stop-opacity="1"></stop>
            <stop offset="80%" stop-color="#e4f8ff" stop-opacity="1"></stop>
        </linearGradient>
    </defs>
    <g transform="translate(900, 0)">
        <path
            d="M0 432.7C-82.5 425.3 -165 417.9 -216.3 374.7C-267.7 331.5 -287.8 252.4 -318.7 200C-349.6 115.6 -391.1 57.8 -432.7 0L0 0Z"
            fill="#f2fbff"></path>
        <path
            d="M0 360.6C-68.7 354.4 -137.5 348.3 -180.3 312.2C-250.1 276.2 -239.9 210.4 -265.6 153.3C-291.3 96.3 -325.9 48.2 -360.6 0L0 0Z"
            fill="#d7f4ff"></path>
        <path
            d="M0 288.4C-55 283.5 -110 278.6 -144.2 249.8C-178.4 221 -191.9 168.3 -212.5 122.7C-233 77.1 -260.7 38.5 -288.4 0L0 0Z"
            fill="#b9edff"></path>
        <path
            d="M0 216.3C-41.2 212.6 -82.5 209 -108.2 187.3C-133.8 165.7 -143.9 126.2 -159.3 92C-174.8 57.8 -195.6 28.9 -216.3 0L0 0Z"
            fill="#99e6ff"></path>
        <path
            d="M0 144.2C-27.5 141.8 -55 139.3 -72.1 124.9C-89.2 110.5 -95.9 84.1 -106.2 61.3C-116.5 38.5 -130.4 19.3 -144.2 0L0 0Z"
            fill="#72dfff"></path>
        <path
            d="M0 72.1C-13.7 70.9 -27.5 69.7 -36.1 62.4C-44.6 55.2 -48 42.1 -53.1 30.7C-58.3 19.3 -65.2 9.6 -72.1 0L0 0Z"
            fill="#59dbff"></path>
    </g>
    <g transform="translate(0, 600)">
        <path
            d="M0 -432.7C67.9 -408.7 135.8 -384.7 203 -351.6C270.2 -318.6 336.5 -276.4 374.7 -216.3C412.9 -156.2 422.8 -78.1 432.7 0L0 0Z"
            fill="#f2fbff"></path>
        <path
            d="M0 -360.6C56.6 -340.6 113.2 -320.6 169.2 -293C225.1 -265.5 280.5 -230.4 312.2 -180.3C344 -130.2 352.3 -65.1 360.6 0L0 0Z"
            fill="#d7f4ff"></path>
        <path
            d="M0 -288.4C45.3 -272.4 90.6 -256.4 135.3 -234.4C180.1 -212.4 224.4 -200.3 249.8 -144.2C275.2 -104.1 281.8 -52.1 288.4 0L0 0Z"
            fill="#b9edff"></path>
        <path
            d="M0 -216.3C34 -204.3 67.9 -192.3 101.5 -175.8C135.1 -159.3 168.3 -138.2 187.3 -108.2C206.4 -78.1 211.4 -39.1 216.3 0L0 0Z"
            fill="#99e6ff"></path>
        <path
            d="M0 -144.2C22.6 -136.2 45.3 -128.2 67.7 -117.2C90.1 -106.2 112.2 -92.1 124.9 -72.1C137.6 -52.1 140.9 -26 144.2 0L0 0Z"
            fill="#72dfff"></path>
        <path
            d="M0 -72.1C11.3 -68.1 22.6 -64.1 33.8 -58.6C45 -53.1 56.1 -46.1 62.4 -36.1C68.8 -26 70.5 -13 72.1 0L0 0Z"
            fill="#59dbff"></path>
    </g>
</svg>