<svg width="200" height="250" viewBox="0 0 200 250" fill="none" xmlns="http://www.w3.org/2000/svg">
    <rect width="200" height="222.208" rx="26" fill="#59dbff" />
    <path
        d="M131.647 94.4286V83.7143C131.647 80.8727 130.519 78.1475 128.511 76.1381C126.504 74.1288 123.781 73 120.941 73H56.7059C53.8665 73 51.1434 74.1288 49.1357 76.1381C47.1279 78.1475 46 80.8727 46 83.7143V110.5C46 113.342 47.1279 116.067 49.1357 118.076C51.1434 120.085 53.8665 121.214 56.7059 121.214H78.1176M99.5294 148V126.571C99.5294 123.73 100.657 121.005 102.665 118.995C104.673 116.986 107.396 115.857 110.235 115.857C113.075 115.857 115.798 116.986 117.805 118.995C119.813 121.005 120.941 123.73 120.941 126.571V148M99.5294 137.286H120.941M137 115.857V148"
        stroke="white" stroke-width="9" stroke-linecap="round" stroke-linejoin="round" />
</svg>