<svg width="200" height="250" viewBox="0 0 200 250" fill="none" xmlns="http://www.w3.org/2000/svg">
<rect width="200" height="222.208" rx="26" fill="#59dbff)"/>
<path d="M150.569 113.492C149.676 103.516 148.206 101.573 147.651 100.842C146.374 99.1533 144.331 98.0498 142.168 96.8919C142.046 96.8276 141.941 96.7358 141.86 96.6238C141.78 96.5119 141.726 96.3828 141.704 96.2469C141.682 96.1109 141.693 95.9717 141.734 95.8403C141.775 95.7089 141.847 95.5889 141.943 95.4897C142.343 95.0854 142.651 94.5995 142.845 94.0656C143.039 93.5316 143.114 92.9621 143.066 92.3963C142.973 91.3931 142.504 90.4613 141.753 89.7859C141.002 89.1105 140.024 88.7408 139.012 88.75H135.144C134.978 88.751 134.813 88.7617 134.648 88.7821C134.535 88.7333 134.418 88.6945 134.298 88.6661C132.007 83.8446 128.871 77.2432 122.369 74.0214C112.726 69.2469 94.9631 69 91.4918 69C88.0204 69 70.2571 69.2469 60.6266 74.014C54.1252 77.2357 50.9886 83.8372 48.6975 88.6587L48.6777 88.6982C48.5634 88.7142 48.4512 88.7423 48.343 88.7821C48.1785 88.7617 48.0129 88.751 47.8471 88.75H43.9716C42.9596 88.7408 41.9812 89.1105 41.2303 89.7859C40.4793 90.4613 40.0108 91.3931 39.9175 92.3963C39.8735 92.9608 39.9524 93.5281 40.1488 94.0594C40.3452 94.5907 40.6545 95.0735 41.0556 95.4749C41.1516 95.5741 41.2501 95.6941 41.2645 95.8255C41.3059 95.9569 41.316 96.0961 41.2941 96.232C41.2723 96.368 41.2189 96.4971 41.1384 96.609C41.0578 96.721 40.9523 96.8128 40.83 96.8771C38.6678 98.0424 36.6148 99.1459 35.3478 100.827C34.7923 101.568 33.3245 103.501 32.4293 113.477C31.9334 119.091 31.8591 124.902 32.2483 128.645C33.0641 136.422 34.594 141.122 34.6584 141.317C34.8932 142.027 35.3253 142.656 35.9047 143.131C36.484 143.606 37.1868 143.907 37.9314 144.001V144.05C37.9314 145.098 38.3494 146.102 39.0934 146.843C39.8374 147.584 40.8465 148 41.8987 148H55.784C56.8362 148 57.8453 147.584 58.5893 146.843C59.3333 146.102 59.7513 145.098 59.7513 144.05C61.8862 144.05 63.3714 143.67 64.9459 143.265C67.2191 142.655 69.5426 142.249 71.8886 142.053C79.4537 141.334 86.9766 141.088 91.4918 141.088C95.9153 141.088 103.77 141.334 111.348 142.053C113.703 142.25 116.036 142.657 118.318 143.27C119.825 143.655 121.256 144.01 123.237 144.048C123.237 145.095 123.655 146.1 124.399 146.841C125.143 147.581 126.152 147.998 127.204 147.998H141.09C142.142 147.998 143.151 147.581 143.895 146.841C144.639 146.1 145.057 145.095 145.057 144.048V144.018C145.803 143.926 146.508 143.626 147.09 143.15C147.671 142.675 148.105 142.045 148.34 141.334C148.404 141.139 149.934 136.439 150.75 128.662C151.139 124.917 151.07 119.116 150.569 113.492ZM55.8684 92.0359C57.852 87.839 60.1208 83.0892 64.1599 81.087C69.9967 78.1936 82.0944 76.8901 91.4918 76.8901C100.889 76.8901 112.987 78.1838 118.824 81.087C122.863 83.0892 125.122 87.8415 127.115 92.0359L127.363 92.5716C127.508 92.8766 127.572 93.2135 127.549 93.5501C127.526 93.8868 127.417 94.212 127.232 94.4947C127.047 94.7774 126.793 95.0082 126.493 95.1651C126.193 95.322 125.857 95.3998 125.518 95.3909C117.279 95.1687 99.9222 94.4577 91.4918 94.4577C83.0614 94.4577 65.7047 95.186 57.4528 95.4082C57.114 95.417 56.7786 95.3393 56.4786 95.1824C56.1785 95.0255 55.9239 94.7947 55.7389 94.512C55.5539 94.2293 55.4447 93.9041 55.4218 93.5674C55.3989 93.2308 55.463 92.8939 55.608 92.5889C55.6948 92.4062 55.7865 92.2211 55.8684 92.0359ZM58.8264 111.695C54.5612 112.206 50.2686 112.458 45.9725 112.45C43.3442 112.45 40.6341 111.709 40.1308 109.379C39.7861 107.811 39.8233 106.93 40.0093 106.044C40.1655 105.291 40.4134 104.743 41.6532 104.55C44.8766 104.056 46.6792 104.676 51.9557 106.224C55.4543 107.248 57.9784 108.614 59.4166 109.695C60.1381 110.228 59.7538 111.621 58.8264 111.695ZM113.718 131.938C110.455 132.309 103.929 132.173 91.5662 132.173C79.2032 132.173 72.6796 132.309 69.4165 131.938C66.0493 131.566 61.7572 128.396 64.688 125.571C66.6394 123.71 71.1919 122.318 77.2543 121.535C83.3168 120.752 85.8831 120.35 91.5414 120.35C97.1997 120.35 99.5056 120.597 105.828 121.537C112.151 122.478 116.929 123.888 118.395 125.574C121.068 128.596 117.083 131.546 113.718 131.953V131.938ZM142.853 109.376C142.357 111.717 139.629 112.448 137.011 112.448C132.633 112.449 128.258 112.196 123.909 111.692C123.15 111.62 122.798 110.295 123.567 109.692C124.983 108.584 127.534 107.246 131.028 106.221C136.304 104.673 139.347 104.054 141.96 104.57C142.597 104.696 142.935 105.377 142.974 105.804C143.149 106.993 143.108 108.204 142.853 109.379V109.376Z" fill="white"/>
</svg>
