<svg width="200" height="250" viewBox="0 0 200 250" fill="none" xmlns="http://www.w3.org/2000/svg">
    <rect width="200" height="222.208" rx="26" fill="#59dbff" />
    <path fill-rule="evenodd" clip-rule="evenodd"
        d="M109.234 46C105.79 46 102.488 47.3724 100.053 49.8152C97.6177 52.258 96.2497 55.5712 96.2497 59.0258V72.0517H39.9843C36.5407 72.0517 33.2381 73.424 30.803 75.8668C28.368 78.3097 27 81.6228 27 85.0775V137.181C27 140.635 28.368 143.949 30.803 146.391C33.2381 148.834 36.5407 150.207 39.9843 150.207H78.9373V167.574H61.6249V176.258H143.859C147.303 176.258 150.605 174.886 153.04 172.443C155.475 170 156.843 166.687 156.843 163.232V59.0258C156.843 55.5712 155.475 52.258 153.04 49.8152C150.605 47.3724 147.303 46 143.859 46H109.234ZM96.9855 167.574H87.5935V150.207H96.2497V163.232C96.2497 164.752 96.5094 166.22 96.9855 167.574ZM109.234 167.574H143.859C145.007 167.574 146.108 167.117 146.919 166.303C147.731 165.488 148.187 164.384 148.187 163.232V98.1033H104.906V163.232C104.906 164.384 105.362 165.488 106.174 166.303C106.985 167.117 108.086 167.574 109.234 167.574ZM104.906 89.4194H148.187V59.0258C148.187 57.8743 147.731 56.7699 146.919 55.9556C146.108 55.1413 145.007 54.6839 143.859 54.6839H109.234C108.086 54.6839 106.985 55.1413 106.174 55.9556C105.362 56.7699 104.906 57.8743 104.906 59.0258V89.4194Z"
        fill="white" />
</svg>