<svg width="2344" height="870" viewBox="0 0 2344 870" fill="none" xmlns="http://www.w3.org/2000/svg">
<path d="M2190.56 48.0965L2343.22 48.0965L2133.83 830.258L1974.87 830.258L2190.56 48.0965Z" fill="#04A3FE"/>
<path d="M1337.5 190.5L1555.1 191.32L967.501 648L770.001 648L1102.1 373.049L1337.5 190.5Z" fill="#04A3FE"/>
<path d="M940.198 44.2187L901.33 191.279L1555.41 191.279L1598.81 44.2187L940.198 44.2187Z" fill="#04A3FE"/>
<path d="M751.121 682.778L712.253 829.838L1366.34 829.838L1409.74 682.778L751.121 682.778Z" fill="#04A3FE"/>
<path d="M217.752 40.0681L370.515 39.6931L159.07 829.538L-5.34837e-05 829.929L217.752 40.0681Z" fill="#04A3FE"/>
<path d="M728.36 45.9954L881.023 45.9954L669.185 828.157L512.671 828.157L728.36 45.9954Z" fill="#04A3FE"/>
<path d="M335.145 355.044L289.98 508.406L601.403 508.406L622.499 430L643.383 355.044L335.145 355.044Z" fill="#04A3FE"/>
<path d="M1659.04 48.0965L1811.7 48.0965L1602.32 830.258L1443.35 830.258L1659.04 48.0965Z" fill="#04A3FE"/>
<path d="M1989.57 656.518L1939.15 828.788L1752.18 261.557L1811 49.3701L1989.57 656.518Z" fill="#04A3FE"/>
</svg>
