<svg width="200" height="250" viewBox="0 0 200 250" fill="none" xmlns="http://www.w3.org/2000/svg">
<rect width="200" height="222.208" rx="26" fill="#59dbff"/>
<path d="M147 103.789V142.842C147 145.801 145.82 148.639 143.72 150.732C141.619 152.824 138.77 154 135.8 154H124.6C121.63 154 118.781 152.824 116.68 150.732C114.58 148.639 113.4 145.801 113.4 142.842V114.947C113.4 111.988 114.58 109.15 116.68 107.058C118.781 104.965 121.63 103.789 124.6 103.789H135.8C135.8 91.9524 131.08 80.6002 122.678 72.2302C114.277 63.8601 102.882 59.1579 91 59.1579C79.1183 59.1579 67.7232 63.8601 59.3216 72.2302C50.92 80.6002 46.2 91.9524 46.2 103.789H57.4C60.3704 103.789 63.2192 104.965 65.3196 107.058C67.42 109.15 68.6 111.988 68.6 114.947V142.842C68.6 145.801 67.42 148.639 65.3196 150.732C63.2192 152.824 60.3704 154 57.4 154H46.2C43.2296 154 40.3808 152.824 38.2804 150.732C36.18 148.639 35 145.801 35 142.842V103.789C35 72.9769 60.0712 48 91 48C121.929 48 147 72.9769 147 103.789Z" fill="white"/>
</svg>
