<svg width="200" height="250" viewBox="0 0 200 250" fill="none" xmlns="http://www.w3.org/2000/svg">
<rect width="200" height="222.208" rx="26" fill="#59dbff"/>
<path fill-rule="evenodd" clip-rule="evenodd" d="M54.3896 107.979C54.3896 107.067 54.7518 106.193 55.3965 105.548C56.0411 104.904 56.9155 104.542 57.8271 104.542C82.5313 104.542 102.551 124.548 102.551 149.229C102.551 150.141 102.189 151.016 101.544 151.661C100.899 152.307 100.024 152.669 99.1115 152.669C98.1992 152.669 97.3243 152.307 96.6792 151.661C96.0341 151.016 95.6717 150.141 95.6717 149.229C95.6717 128.347 78.7271 111.417 57.8271 111.417C56.9155 111.417 56.0411 111.054 55.3965 110.41C54.7518 109.765 54.3896 108.891 54.3896 107.979ZM57.8271 118.292C56.9155 118.292 56.0411 118.654 55.3965 119.298C54.7518 119.943 54.3896 120.817 54.3896 121.729C54.3896 122.641 54.7518 123.515 55.3965 124.16C56.0411 124.804 56.9155 125.167 57.8271 125.167C60.9883 125.165 64.1187 125.787 67.0397 126.995C69.9606 128.204 72.615 129.976 74.8511 132.211C77.0872 134.445 78.8613 137.098 80.0721 140.018C81.283 142.938 81.9068 146.068 81.908 149.229C81.908 150.142 82.2706 151.018 82.9161 151.663C83.5617 152.309 84.4372 152.671 85.3501 152.671C86.263 152.671 87.1385 152.309 87.784 151.663C88.4295 151.018 88.7921 150.142 88.7921 149.229C88.7903 145.165 87.988 141.14 86.4309 137.386C84.8738 133.631 82.5924 130.22 79.717 127.347C76.8417 124.475 73.4286 122.196 69.6727 120.642C65.9169 119.089 61.8917 118.29 57.8271 118.292Z" fill="white"/>
<path d="M52.167 99.3533C53.7941 98.29 55.742 97.6667 57.8274 97.6667C86.3266 97.6667 109.436 120.753 109.436 149.229C109.436 150.435 109.225 151.59 108.844 152.667C125.01 152.662 133.264 152.483 138.462 147.112C143.834 141.557 143.834 132.619 143.834 114.74V107.768C143.834 97.2771 143.834 92.0337 141.45 87.6887C139.067 83.3392 134.722 80.6442 126.018 75.245L116.838 69.5571C107.644 63.8508 103.047 61 97.9637 61C92.8807 61 88.2837 63.8508 79.0803 69.5571L69.9137 75.245C61.2053 80.6442 56.8557 83.3392 54.477 87.6887C52.8362 90.6817 52.3228 94.0962 52.167 99.3533Z" fill="white"/>
<path d="M41 161.833V145.833C41 143.712 41.8128 141.677 43.2595 140.177C44.7062 138.676 46.6683 137.833 48.7143 137.833C50.7602 137.833 52.7224 138.676 54.1691 140.177C55.6158 141.677 56.4286 143.712 56.4286 145.833V161.833M41 153.833H56.4286M68 137.833V161.833" stroke="white" stroke-width="5" stroke-linecap="round" stroke-linejoin="round"/>
</svg>
