<svg width="200" height="250" viewBox="0 0 200 250" fill="none" xmlns="http://www.w3.org/2000/svg">
<rect width="200" height="222.208" rx="26" fill="#59dbff"/>
<path d="M80.25 157V65H63C56.9 65 51.0499 67.4232 46.7365 71.7365C42.4232 76.0499 40 81.9 40 88V134C40 140.1 42.4232 145.95 46.7365 150.263C51.0499 154.577 56.9 157 63 157H80.25ZM103.25 157V65H120.5C126.6 65 132.45 67.4232 136.763 71.7365C141.077 76.0499 143.5 81.9 143.5 88V134C143.5 140.1 141.077 145.95 136.763 150.263C132.45 154.577 126.6 157 120.5 157H103.25Z" stroke="white" stroke-width="6" stroke-linecap="round" stroke-linejoin="round"/>
<path d="M123.375 136.875C126.551 136.875 129.125 134.301 129.125 131.125C129.125 127.949 126.551 125.375 123.375 125.375C120.199 125.375 117.625 127.949 117.625 131.125C117.625 134.301 120.199 136.875 123.375 136.875Z" fill="white" stroke="white" stroke-width="6" stroke-linecap="round" stroke-linejoin="round"/>
<path d="M60.125 96.625C63.3006 96.625 65.875 94.0506 65.875 90.875C65.875 87.6994 63.3006 85.125 60.125 85.125C56.9494 85.125 54.375 87.6994 54.375 90.875C54.375 94.0506 56.9494 96.625 60.125 96.625Z" fill="white" stroke="white" stroke-width="6" stroke-linecap="round" stroke-linejoin="round"/>
</svg>
