<svg width="200" height="250" viewBox="0 0 200 250" fill="none" xmlns="http://www.w3.org/2000/svg">
<rect width="200" height="222.208" rx="26" fill="#59dbff"/>
<path d="M115.522 168.257C119.059 168.257 122.451 166.847 124.952 164.338C127.452 161.829 128.857 158.427 128.857 154.879L128.857 66.378C128.857 62.8299 127.452 59.4271 124.952 56.9183C122.451 54.4094 119.059 53 115.522 53L68.3353 53C64.7986 53 61.4067 54.4094 58.9058 56.9183C56.4049 59.4272 54.9999 62.8299 54.9999 66.378L55 154.879C55 158.427 56.4049 161.829 58.9058 164.338C61.4067 166.847 64.7986 168.257 68.3353 168.257L115.522 168.257ZM120.651 154.879C120.651 157.719 118.353 160.024 115.522 160.024L68.3353 160.024C65.5041 160.024 63.2063 157.719 63.2063 154.879L63.2063 66.378C63.2063 63.5377 65.5041 61.2326 68.3353 61.2326L115.522 61.2326C118.353 61.2326 120.651 63.5377 120.651 66.378L120.651 154.879ZM100.135 77.6978C101.250 77.6978 102.267 77.2641 103.036 76.4922C103.806 75.7202 104.238 74.6732 104.238 73.5815C104.238 72.4898 103.806 71.4428 103.036 70.6708C102.267 69.8989 101.250 69.4652 100.135 69.4652L83.7250 69.4652C82.6341 69.4652 81.5904 69.8989 80.8209 70.6708C80.0514 71.4428 79.6191 72.4898 79.6191 73.5815C79.6191 74.6732 80.0514 75.7202 80.8209 76.4922C81.5904 77.2641 82.6341 77.6978 83.7250 77.6978L100.135 77.6978Z" fill="white"/>
</svg>
