<svg width="600" height="600" viewBox="0 0 458 458" fill="none" xmlns="http://www.w3.org/2000/svg">
    <path
        d="M367.348 161.66C362.774 160.097 358.167 158.642 353.528 157.294C354.297 154.164 355.007 151.015 355.657 147.848C366.123 96.9493 359.28 55.944 335.923 42.4456C313.56 29.4927 276.884 42.9912 239.886 75.2659C236.249 78.4504 232.685 81.7304 229.197 85.1058C226.871 82.8635 224.486 80.6689 222.041 78.522C183.263 44.011 144.395 29.4749 121.066 43.0181C98.7026 55.9977 92.0562 94.5431 101.476 142.785C102.418 147.556 103.476 152.306 104.651 157.035C99.3052 158.551 94.0044 160.221 88.7554 162.044C43.349 177.922 14.3125 202.817 14.3125 228.633C14.3125 255.308 45.478 282.055 92.8255 298.273C96.666 299.579 100.542 300.792 104.454 301.913C103.184 306.976 102.06 312.096 101.082 317.272C92.1367 364.683 99.1141 402.315 121.433 415.215C144.485 428.534 183.155 414.848 220.851 381.84C223.833 379.228 226.814 376.469 229.796 373.565C233.565 377.209 237.441 380.745 241.425 384.174C277.922 415.644 313.963 428.355 336.245 415.42C359.28 402.056 366.767 361.623 357.043 312.433C356.298 308.676 355.439 304.841 354.467 300.929C357.186 300.124 359.849 299.292 362.455 298.434C411.654 282.09 443.705 255.666 443.705 228.66C443.687 202.719 413.721 177.663 367.348 161.66ZM251.954 89.1311C283.647 61.4812 313.274 50.5679 326.781 58.3682C341.156 66.6784 346.747 100.188 337.712 144.136C337.116 146.998 336.472 149.852 335.78 152.697C316.866 148.394 297.687 145.358 278.369 143.608C267.309 127.675 255.184 112.508 242.078 98.2106C245.286 95.0977 248.572 92.0712 251.936 89.1311H251.954ZM141.094 250.692C144.977 258.206 149.035 265.628 153.269 272.957C157.581 280.436 162.074 287.804 166.75 295.061C153.457 293.616 140.249 291.487 127.176 288.683C130.968 276.41 135.638 263.663 141.094 250.692ZM141.094 207.46C135.727 194.766 131.183 182.279 127.453 170.22C139.708 167.474 152.768 165.229 166.383 163.529C161.821 170.65 157.432 177.875 153.215 185.204C148.999 192.533 144.95 199.952 141.068 207.46H141.094ZM150.845 229.081C156.498 217.291 162.587 205.727 169.111 194.391C175.629 183.06 182.568 171.989 189.927 161.177C202.701 160.211 215.797 159.701 229.027 159.701C242.257 159.701 255.433 160.211 268.198 161.186C275.48 171.974 282.377 183.006 288.889 194.283C295.401 205.56 301.57 217.07 307.397 228.812C301.648 240.644 295.493 252.255 288.934 263.645C282.427 274.976 275.569 286.08 268.359 296.958C255.612 297.852 242.418 298.344 229 298.344C215.582 298.344 202.638 297.924 190.124 297.11C182.711 286.262 175.716 275.143 169.138 263.753C162.56 252.362 156.454 240.805 150.818 229.081H150.845ZM304.812 272.832C309.135 265.33 313.286 257.729 317.263 250.03C322.716 262.394 327.529 275.029 331.683 287.887C318.456 290.865 305.083 293.15 291.617 294.73C296.161 287.52 300.56 280.221 304.812 272.832ZM317.085 207.469C313.125 199.925 309.007 192.47 304.731 185.105C300.557 177.842 296.206 170.668 291.68 163.583C305.375 165.318 318.516 167.626 330.833 170.444C326.873 183.008 322.284 195.365 317.085 207.469ZM229.206 111.351C238.138 121.112 246.572 131.316 254.476 141.926C237.57 141.121 220.651 141.121 203.721 141.926C212.067 130.888 220.609 120.645 229.206 111.351ZM130.297 58.9139C144.664 50.5768 176.428 62.492 209.911 92.2531C212.049 94.1584 214.204 96.1532 216.351 98.2196C203.178 112.515 190.968 127.669 179.801 143.581C160.526 145.318 141.384 148.306 122.497 152.527C121.406 148.137 120.422 143.718 119.545 139.27C111.45 97.9155 116.808 66.741 130.297 58.9139ZM109.356 284.202C105.778 283.182 102.245 282.076 98.7562 280.883C77.8242 273.727 60.5329 264.388 48.6625 254.217C38.0355 245.102 32.6504 236.004 32.6504 228.633C32.6504 212.97 55.9619 192.986 94.8382 179.434C99.7223 177.734 104.648 176.181 109.616 174.774C115.39 193.329 122.382 211.483 130.548 229.116C122.285 246.994 115.206 265.395 109.356 284.202ZM208.766 367.992C192.101 382.591 175.409 392.941 160.694 398.156C147.472 402.834 136.944 402.968 130.584 399.292C117.04 391.465 111.405 361.239 119.089 320.698C120.001 315.928 121.045 311.157 122.22 306.386C141.296 310.495 160.63 313.302 180.087 314.786C191.363 330.781 203.674 346.02 216.942 360.407C214.276 363.028 211.548 365.55 208.766 367.992ZM229.716 347.221C221.021 337.82 212.344 327.416 203.882 316.235C212.105 316.557 220.478 316.718 229 316.718C237.749 316.718 246.408 316.53 254.941 316.145C247.066 326.926 238.647 337.298 229.716 347.221ZM341.103 372.796C338.544 386.608 333.401 395.821 327.041 399.507C313.506 407.361 284.568 397.154 253.367 370.238C249.789 367.16 246.211 363.86 242.57 360.398C255.579 345.955 267.602 330.654 278.557 314.598C298.122 312.94 317.55 309.936 336.702 305.608C337.578 309.15 338.353 312.621 339.027 316.02C343.33 337.757 343.947 357.419 341.103 372.796ZM356.668 280.981C354.324 281.76 351.909 282.511 349.458 283.244C343.452 264.602 336.187 246.389 327.712 228.732C335.869 211.31 342.85 193.361 348.608 175.006C353 176.285 357.267 177.627 361.373 179.049C401.108 192.754 425.35 213.042 425.35 228.633C425.35 245.272 399.167 266.866 356.668 280.981Z"
        fill="#00E2FF27" />
    <path
        d="M229 267.062C236.613 267.087 244.062 264.852 250.404 260.641C256.746 256.429 261.695 250.431 264.626 243.404C267.556 236.378 268.336 228.64 266.866 221.17C265.396 213.701 261.743 206.835 256.368 201.443C250.994 196.051 244.14 192.375 236.675 190.881C229.211 189.387 221.47 190.141 214.434 193.049C207.398 195.956 201.384 200.886 197.152 207.215C192.919 213.543 190.66 220.985 190.66 228.597C190.65 233.641 191.633 238.638 193.555 243.301C195.476 247.964 198.298 252.203 201.858 255.776C205.419 259.348 209.649 262.183 214.306 264.12C218.963 266.057 223.956 267.056 229 267.062Z"
        fill="#00E2FF27" />
</svg>